<?xml version="1.0" encoding="utf-8"?>
<!-- Generator: Adobe Illustrator 27.5.0, SVG Export Plug-In . SVG Version: 6.00 Build 0)  -->
<svg version="1.1" id="Layer_1" xmlns="http://www.w3.org/2000/svg" xmlns:xlink="http://www.w3.org/1999/xlink" x="0px" y="0px"
	 viewBox="0 0 900 900" style="enable-background:new 0 0 900 900;" xml:space="preserve">
<rect x="108.566" y="141.466" style="opacity:0.19;fill:#07113D;" width="138.877" height="171.84"/>
<rect x="293.122" y="141.466" style="opacity:0.19;fill:#07113D;" width="138.877" height="171.84"/>
<rect x="477.679" y="141.466" style="opacity:0.19;fill:#07113D;" width="138.877" height="171.84"/>
<rect x="662.236" y="141.466" style="opacity:0.19;fill:#07113D;" width="138.877" height="171.84"/>
<rect x="108.566" y="344.319" style="opacity:0.19;fill:#07113D;" width="138.877" height="171.84"/>
<rect x="292.638" y="344.318" style="opacity:0.19;fill:#07113D;" width="138.88" height="171.84"/>
<rect x="660.789" y="344.319" style="opacity:0.19;fill:#07113D;" width="138.877" height="171.84"/>
<rect x="476.715" y="344.319" style="opacity:0.19;fill:#07113D;" width="138.877" height="171.84"/>
<rect x="108.028" y="133.083" style="fill:#8090BC;" width="138.877" height="171.84"/>
<rect x="292.584" y="133.083" style="fill:#8090BC;" width="138.877" height="171.84"/>
<rect x="477.141" y="133.083" style="fill:#8090BC;" width="138.877" height="171.84"/>
<rect x="661.698" y="133.083" style="fill:#8090BC;" width="138.877" height="171.84"/>
<rect x="108.028" y="335.936" style="fill:#8090BC;" width="138.877" height="171.841"/>
<rect x="292.1" y="335.934" style="fill:#8090BC;" width="138.88" height="171.84"/>
<rect x="660.251" y="335.936" style="fill:#8090BC;" width="138.877" height="171.841"/>
<rect x="476.177" y="335.936" style="fill:#8090BC;" width="138.877" height="171.841"/>
<line style="fill:none;stroke:#716F82;stroke-width:7;stroke-linecap:round;stroke-miterlimit:10;" x1="673.999" y1="732.643" x2="808.598" y2="732.643"/>
<line style="fill:none;stroke:#716F82;stroke-width:7;stroke-linecap:round;stroke-miterlimit:10;" x1="142.678" y1="732.643" x2="285.999" y2="732.643"/>
<g>
	<g>
		<g>
			<rect x="108.028" y="128.083" style="fill:#A3ADD1;" width="138.877" height="171.84"/>
			<polygon style="opacity:0.6;fill:#07113D;" points="242.682,285.384 119.504,285.384 115.503,140.018 238.682,140.018 			"/>
		</g>
		<g>
			<rect x="115.78" y="139.518" style="fill:#FFFFFF;" width="123.179" height="140.367"/>
			<circle style="fill:#061D48;" cx="233.23" cy="144.77" r="2.387"/>
			<rect x="129.865" y="157.686" style="fill:#A3ADD1;" width="92.862" height="13.368"/>
			<rect x="129.626" y="183.919" style="fill:#5472C6;" width="31.988" height="18.143"/>
			<rect x="166.866" y="206.837" style="fill:#A3ADD1;" width="31.988" height="18.143"/>
			<rect x="203.39" y="183.919" style="fill:#9995A7;" width="19.998" height="18.143"/>
			<rect x="203.39" y="207.195" style="fill:#D93838;" width="19.998" height="18.143"/>
			<g>
				<rect x="167.105" y="198.446" style="fill:#061D48;" width="31.988" height="1.301"/>
				<rect x="167.105" y="193.817" style="fill:#061D48;" width="31.988" height="1.301"/>
				<rect x="167.105" y="189.187" style="fill:#061D48;" width="31.988" height="1.301"/>
				<rect x="167.105" y="184.558" style="fill:#061D48;" width="31.988" height="1.301"/>
			</g>
			<rect x="129.626" y="229.395" style="fill:#F7C946;" width="31.988" height="18.143"/>
			<rect x="203.39" y="229.395" style="fill:#9995A7;" width="19.998" height="18.143"/>
			<g>
				<rect x="167.105" y="243.922" style="fill:#061D48;" width="31.988" height="1.301"/>
				<rect x="167.105" y="239.293" style="fill:#061D48;" width="31.988" height="1.301"/>
				<rect x="167.105" y="234.663" style="fill:#061D48;" width="31.988" height="1.301"/>
				<rect x="167.105" y="230.034" style="fill:#061D48;" width="31.988" height="1.301"/>
			</g>
			<g>
				<rect x="129.507" y="220.647" style="fill:#061D48;" width="31.988" height="1.301"/>
				<rect x="129.507" y="216.018" style="fill:#061D48;" width="31.988" height="1.301"/>
				<rect x="129.507" y="211.388" style="fill:#061D48;" width="31.988" height="1.301"/>
				<rect x="129.507" y="206.759" style="fill:#061D48;" width="31.988" height="1.301"/>
			</g>
			<circle style="fill:#061D48;" cx="120.554" cy="144.77" r="2.387"/>
		</g>
	</g>
	<g>
		<g>
			<g>
				<rect x="292.584" y="128.083" style="fill:#A3ADD1;" width="138.877" height="171.84"/>
				<polygon style="opacity:0.6;fill:#07113D;" points="427.016,285.384 303.837,285.384 299.837,140.018 423.016,140.018 				"/>
			</g>
			<rect x="300.337" y="139.518" style="fill:#FFFFFF;" width="123.179" height="140.367"/>
			<circle style="fill:#061D48;" cx="417.786" cy="144.77" r="2.387"/>
			<circle style="fill:#061D48;" cx="305.111" cy="144.77" r="2.387"/>
		</g>
		<g id="XMLID_75_">
			
				<rect id="XMLID_121_" x="352.102" y="152.668" transform="matrix(-1.836970e-16 1 -1 -1.836970e-16 528.6557 -184.9865)" style="fill:#BCDB3A;" width="9.437" height="38.333"/>
			
				<rect id="XMLID_120_" x="360.386" y="160.95" transform="matrix(-1.836970e-16 1 -1 -1.836970e-16 553.5049 -176.705)" style="fill:#BCDB3A;" width="9.437" height="54.901"/>
			
				<rect id="XMLID_119_" x="348.204" y="189.697" transform="matrix(-1.836970e-16 1 -1 -1.836970e-16 557.8882 -147.9575)" style="fill:#BCDB3A;" width="9.438" height="30.537"/>
			
				<rect id="XMLID_118_" x="365.579" y="202.859" transform="matrix(-1.836970e-16 1 -1 -1.836970e-16 575.2626 -165.332)" style="fill:#D93838;" width="9.438" height="4.212"/>
			
				<rect id="XMLID_117_" x="376.028" y="167.075" transform="matrix(-1.836970e-16 1 -1 -1.836970e-16 552.5814 -208.9122)" style="fill:#D93838;" width="9.437" height="9.518"/>
			
				<rect id="XMLID_101_" x="363.472" y="190.994" transform="matrix(-1.836970e-16 1 -1 -1.836970e-16 589.7217 -146.6604)" style="fill:#BCDB3A;" width="9.437" height="61.073"/>
			
				<rect id="XMLID_98_" x="352.102" y="219.062" transform="matrix(-1.836970e-16 1 -1 -1.836970e-16 595.0499 -118.5923)" style="fill:#BCDB3A;" width="9.437" height="38.333"/>
			
				<rect id="XMLID_97_" x="342.519" y="245.211" transform="matrix(-1.836970e-16 1 -1 -1.836970e-16 602.032 -92.4437)" style="fill:#BCDB3A;" width="9.438" height="19.167"/>
			<path id="XMLID_96_" style="fill:#6D7DAA;" d="M326.285,173.602v-3.535c0-1.63,1.321-2.951,2.951-2.951h0.413
				c1.63,0,2.951,1.321,2.951,2.951v3.535c0,1.63-1.321,2.951-2.951,2.951h-0.413C327.606,176.553,326.285,175.232,326.285,173.602z
				"/>
			<path id="XMLID_95_" style="fill:#6D7DAA;" d="M326.285,190.167v-3.535c0-1.63,1.321-2.951,2.951-2.951h0.413
				c1.63,0,2.951,1.321,2.951,2.951v3.535c0,1.63-1.321,2.951-2.951,2.951h-0.413C327.606,193.119,326.285,191.797,326.285,190.167z
				"/>
			<path id="XMLID_82_" style="fill:#6D7DAA;" d="M326.285,206.733v-3.535c0-1.63,1.321-2.951,2.951-2.951h0.413
				c1.63,0,2.951,1.321,2.951,2.951v3.535c0,1.63-1.321,2.951-2.951,2.951h-0.413C327.606,209.684,326.285,208.363,326.285,206.733z
				"/>
			<path id="XMLID_81_" style="fill:#6D7DAA;" d="M326.285,223.298v-3.535c0-1.63,1.321-2.951,2.951-2.951h0.413
				c1.63,0,2.951,1.321,2.951,2.951v3.535c0,1.63-1.321,2.951-2.951,2.951h-0.413C327.606,226.249,326.285,224.928,326.285,223.298z
				"/>
			<path id="XMLID_78_" style="fill:#6D7DAA;" d="M326.285,239.996v-3.535c0-1.63,1.321-2.951,2.951-2.951h0.413
				c1.63,0,2.951,1.321,2.951,2.951v3.535c0,1.63-1.321,2.951-2.951,2.951h-0.413C327.606,242.947,326.285,241.626,326.285,239.996z
				"/>
			<path id="XMLID_77_" style="fill:#6D7DAA;" d="M326.285,256.562v-3.535c0-1.63,1.321-2.951,2.951-2.951h0.413
				c1.63,0,2.951,1.321,2.951,2.951v3.535c0,1.63-1.321,2.951-2.951,2.951h-0.413C327.606,259.513,326.285,258.192,326.285,256.562z
				"/>
			
				<rect id="XMLID_76_" x="350.955" y="249.434" transform="matrix(-1.836970e-16 1 -1 -1.836970e-16 610.4675 -100.8792)" style="fill:#D93838;" width="9.438" height="10.72"/>
		</g>
	</g>
	<g>
		<g>
			<g>
				<rect x="477.141" y="128.083" style="fill:#A3ADD1;" width="138.877" height="171.84"/>
				<polygon style="opacity:0.6;fill:#07113D;" points="612.516,285.384 489.337,285.384 485.337,140.018 608.516,140.018 				"/>
			</g>
			<rect x="484.894" y="139.518" style="fill:#FFFFFF;" width="123.179" height="140.367"/>
			<circle style="fill:#061D48;" cx="602.343" cy="144.77" r="2.387"/>
			<circle style="fill:#061D48;" cx="489.668" cy="144.77" r="2.387"/>
		</g>
		<g>
			<g>
				<rect x="510.609" y="210.239" style="fill:#4D6199;" width="51.867" height="3.176"/>
				<rect x="510.609" y="217.386" style="fill:#4D6199;" width="80.996" height="3.176"/>
				<rect x="510.609" y="224.533" style="fill:#4D6199;" width="54.563" height="3.176"/>
			</g>
			<path style="fill:#6D7DAA;" d="M507.301,211.827c0,1.316-1.155,2.382-2.581,2.382c-1.425,0-2.581-1.067-2.581-2.382
				c0-1.316,1.155-2.382,2.581-2.382C506.145,209.445,507.301,210.512,507.301,211.827z"/>
			<path style="fill:#6D7DAA;" d="M507.301,219.768c0,1.316-1.155,2.382-2.581,2.382c-1.425,0-2.581-1.067-2.581-2.382
				c0-1.316,1.155-2.382,2.581-2.382C506.145,217.386,507.301,218.452,507.301,219.768z"/>
			<path style="fill:#6D7DAA;" d="M507.301,226.915c0,1.316-1.155,2.382-2.581,2.382c-1.425,0-2.581-1.066-2.581-2.382
				s1.155-2.382,2.581-2.382C506.145,224.533,507.301,225.599,507.301,226.915z"/>
		</g>
		<g>
			
				<line style="fill:none;stroke:#2C3765;stroke-width:0.7941;stroke-linecap:round;stroke-miterlimit:10;" x1="504.521" y1="240.414" x2="548.046" y2="240.414"/>
			
				<line style="fill:none;stroke:#2C3765;stroke-width:0.7941;stroke-linecap:round;stroke-miterlimit:10;" x1="504.521" y1="254.178" x2="571.075" y2="254.178"/>
			
				<line style="fill:none;stroke:#2C3765;stroke-width:0.7941;stroke-linecap:round;stroke-miterlimit:10;" x1="504.521" y1="245.002" x2="530.974" y2="245.002"/>
			
				<line style="fill:none;stroke:#2C3765;stroke-width:0.7941;stroke-linecap:round;stroke-miterlimit:10;" x1="504.521" y1="249.59" x2="572.266" y2="249.59"/>
		</g>
		<rect x="502.312" y="164.431" style="fill:#D93838;" width="86.614" height="6.75"/>
		<rect x="502.312" y="176.342" style="fill:#D93838;" width="86.614" height="6.75"/>
		<rect x="502.312" y="188.254" style="fill:#D93838;" width="86.614" height="6.75"/>
	</g>
	<g>
		<g>
			<g>
				<rect x="661.698" y="128.083" style="fill:#A3ADD1;" width="138.877" height="171.84"/>
				<polygon style="opacity:0.6;fill:#07113D;" points="796.516,285.384 673.337,285.384 669.337,140.018 792.516,140.018 				"/>
			</g>
			<rect x="669.451" y="139.518" style="fill:#FFFFFF;" width="123.179" height="140.367"/>
			<circle style="fill:#061D48;" cx="786.9" cy="144.77" r="2.387"/>
			<circle style="fill:#061D48;" cx="674.225" cy="144.77" r="2.387"/>
		</g>
		<g>
			<rect x="717.97" y="163.77" style="fill:#4D6199;" width="52.806" height="3.97"/>
			<rect x="717.97" y="171.313" style="fill:#4D6199;" width="52.806" height="3.97"/>
			<rect x="717.97" y="179.254" style="fill:#4D6199;" width="52.806" height="3.97"/>
		</g>
		<g>
			<rect x="717.97" y="200.694" style="fill:#4D6199;" width="52.806" height="3.97"/>
			<rect x="717.97" y="208.238" style="fill:#4D6199;" width="52.806" height="3.97"/>
			<rect x="717.97" y="216.179" style="fill:#4D6199;" width="52.806" height="3.97"/>
		</g>
		<g>
			<rect x="718.367" y="233.648" style="fill:#4D6199;" width="52.806" height="3.97"/>
			<rect x="718.367" y="241.192" style="fill:#4D6199;" width="52.806" height="3.97"/>
			<rect x="718.367" y="249.133" style="fill:#4D6199;" width="52.806" height="3.97"/>
		</g>
		<path style="fill:#9995A7;" d="M701.231,183.357h-10.063c-3.288,0-5.953-2.665-5.953-5.953v-9.799
			c0-3.288,2.665-5.953,5.953-5.953h10.063c3.288,0,5.953,2.665,5.953,5.953v9.799C707.184,180.692,704.518,183.357,701.231,183.357
			z"/>
		<path style="fill:#FFBE2E;" d="M700.834,219.62H690.77c-3.288,0-5.953-2.665-5.953-5.953v-9.799c0-3.288,2.665-5.953,5.953-5.953
			h10.063c3.288,0,5.953,2.665,5.953,5.953v9.799C706.787,216.954,704.122,219.62,700.834,219.62z"/>
		<path style="fill:#BCDB3A;" d="M701.231,255.353h-10.063c-3.288,0-5.953-2.665-5.953-5.953v-9.799
			c0-3.288,2.665-5.953,5.953-5.953h10.063c3.288,0,5.953,2.665,5.953,5.953v9.799C707.184,252.688,704.518,255.353,701.231,255.353
			z"/>
	</g>
	<g>
		<g>
			<g>
				<g>
					<rect x="108.028" y="330.935" style="fill:#A3ADD1;" width="138.877" height="171.84"/>
					<polygon style="opacity:0.6;fill:#07113D;" points="242.682,488.051 119.504,488.051 115.503,342.684 238.682,342.684 					"/>
				</g>
				<g>
					<rect x="115.78" y="342.371" style="fill:#FFFFFF;" width="123.179" height="140.367"/>
					<path style="fill:#061D48;" d="M235.617,347.622c0,1.318-1.069,2.387-2.387,2.387c-1.318,0-2.387-1.069-2.387-2.387
						c0-1.319,1.069-2.387,2.387-2.387C234.548,345.235,235.617,346.304,235.617,347.622z"/>
					<rect x="129.865" y="370.539" style="fill:#5472C6;" width="92.862" height="13.368"/>
					<path style="fill:#061D48;" d="M122.942,347.622c0,1.318-1.069,2.387-2.387,2.387c-1.318,0-2.387-1.069-2.387-2.387
						c0-1.319,1.069-2.387,2.387-2.387C121.873,345.235,122.942,346.304,122.942,347.622z"/>
				</g>
			</g>
			<rect x="129.096" y="387.798" style="fill:#D93838;" width="43.514" height="15.617"/>
			<rect x="179.342" y="387.798" style="fill:#D93838;" width="42.661" height="15.617"/>
			<rect x="205.592" y="406.326" style="fill:#9995A7;" width="15.882" height="12.176"/>
			<rect x="129.096" y="409.265" style="fill:#EAA64F;" width="43.514" height="15.617"/>
			<rect x="179.342" y="409.265" style="fill:#EAA64F;" width="42.661" height="15.617"/>
			<rect x="129.096" y="451.059" style="fill:#9995A7;" width="15.882" height="12.176"/>
			<rect x="154.594" y="451.059" style="fill:#9995A7;" width="15.882" height="12.176"/>
			<rect x="180.093" y="451.059" style="fill:#9995A7;" width="15.882" height="12.176"/>
			<rect x="205.592" y="450.795" style="fill:#9995A7;" width="15.882" height="12.176"/>
		</g>
		<g>
			<g>
				<g>
					<rect x="292.1" y="330.934" style="fill:#A3ADD1;" width="138.88" height="171.84"/>
					<polygon style="opacity:0.6;fill:#07113D;" points="426.682,488.051 303.504,488.051 299.503,342.684 422.682,342.684 					"/>
				</g>
				<rect x="299.855" y="342.371" style="fill:#FFFFFF;" width="123.179" height="140.367"/>
				<path style="fill:#061D48;" d="M419.691,347.622c0,1.318-1.069,2.387-2.387,2.387c-1.318,0-2.387-1.069-2.387-2.387
					c0-1.319,1.069-2.387,2.387-2.387C418.623,345.235,419.691,346.304,419.691,347.622z"/>
				<path style="fill:#061D48;" d="M307.016,347.622c0,1.318-1.069,2.387-2.387,2.387c-1.318,0-2.387-1.069-2.387-2.387
					c0-1.319,1.069-2.387,2.387-2.387C305.948,345.235,307.016,346.304,307.016,347.622z"/>
			</g>
			<path style="fill:#4D6199;" d="M324.595,374.703h11.911c0,6.534-5.377,11.911-11.911,11.911c-6.534,0-11.911-5.377-11.911-11.911
				c0-6.534,5.377-11.911,11.911-11.911c3.966,0,7.681,1.981,9.891,5.275L324.595,374.703z"/>
			<path style="fill:#D93838;" d="M324.993,410.039l-0.306-11.907c0.102-0.003,0.205-0.004,0.307-0.004
				c6.534,0,11.91,5.377,11.91,11.911c0,6.534-5.377,11.91-11.911,11.91c-6.534,0-11.91-5.377-11.91-11.911L324.993,410.039z"/>
			<path style="fill:#FFBE2E;" d="M324.595,445.376h11.911c0,6.534-5.377,11.911-11.911,11.911c-6.534,0-11.911-5.377-11.911-11.911
				s5.377-11.911,11.911-11.911c1.801,0,3.578,0.408,5.198,1.194L324.595,445.376z"/>
			<g>
				<rect x="346.829" y="364.38" style="fill:#061D48;" width="52.806" height="3.97"/>
				<rect x="346.829" y="371.924" style="fill:#061D48;" width="52.806" height="3.97"/>
				<rect x="346.829" y="379.864" style="fill:#061D48;" width="52.806" height="3.97"/>
			</g>
			<g>
				<rect x="346.829" y="401.305" style="fill:#061D48;" width="52.806" height="3.97"/>
				<rect x="346.829" y="408.848" style="fill:#061D48;" width="52.806" height="3.97"/>
				<rect x="346.829" y="416.789" style="fill:#061D48;" width="52.806" height="3.97"/>
			</g>
			<g>
				<rect x="347.226" y="434.259" style="fill:#061D48;" width="52.806" height="3.97"/>
				<rect x="347.226" y="441.802" style="fill:#061D48;" width="52.806" height="3.97"/>
				<rect x="347.226" y="449.743" style="fill:#061D48;" width="52.806" height="3.97"/>
			</g>
		</g>
		<g>
			<g>
				<g>
					<g>
						<rect x="660.251" y="330.935" style="fill:#A3ADD1;" width="138.877" height="171.84"/>
						<polygon style="opacity:0.6;fill:#07113D;" points="794.682,488.051 671.504,488.051 667.503,342.684 790.682,342.684 						
							"/>
					</g>
					<rect x="668.004" y="342.371" style="fill:#FFFFFF;" width="123.179" height="140.367"/>
					<path style="fill:#061D48;" d="M787.841,347.622c0,1.318-1.069,2.387-2.387,2.387c-1.318,0-2.387-1.069-2.387-2.387
						c0-1.319,1.069-2.387,2.387-2.387C786.772,345.235,787.841,346.304,787.841,347.622z"/>
					<path style="fill:#061D48;" d="M675.165,347.622c0,1.318-1.069,2.387-2.387,2.387s-2.387-1.069-2.387-2.387
						c0-1.319,1.069-2.387,2.387-2.387S675.165,346.304,675.165,347.622z"/>
				</g>
				<g>
					<rect x="700.774" y="394.68" style="fill:#9995A7;" width="57.559" height="11.986"/>
					<rect x="700.774" y="411.286" style="fill:#9995A7;" width="57.559" height="11.987"/>
					<rect x="700.774" y="444.499" style="fill:#9995A7;" width="57.559" height="11.987"/>
					<rect x="700.774" y="427.893" style="fill:#FFBE2E;" width="57.559" height="11.987"/>
				</g>
				<rect x="700.642" y="360.358" style="fill:#4D6199;" width="25.842" height="27.176"/>
			</g>
			<path style="fill:#FFFFFF;" d="M715.87,374.094c1.26-0.777,2.108-2.159,2.108-3.749c0-2.438-1.976-4.415-4.415-4.415
				s-4.415,1.977-4.415,4.415c0,1.59,0.848,2.971,2.108,3.749c-1.923,0.522-3.345,2.262-3.345,4.35v3.516h11.303v-3.516
				C719.214,376.357,717.793,374.616,715.87,374.094z"/>
		</g>
		<g>
			<g>
				<g>
					<rect x="476.177" y="330.935" style="fill:#A3ADD1;" width="138.877" height="171.84"/>
					<polygon style="opacity:0.6;fill:#07113D;" points="611.682,488.051 488.504,488.051 484.503,342.684 607.682,342.684 					"/>
				</g>
				<rect x="483.929" y="342.371" style="fill:#FFFFFF;" width="123.179" height="140.367"/>
				<path style="fill:#061D48;" d="M603.766,347.622c0,1.318-1.069,2.387-2.387,2.387c-1.318,0-2.387-1.069-2.387-2.387
					c0-1.319,1.069-2.387,2.387-2.387C602.697,345.235,603.766,346.304,603.766,347.622z"/>
				<path style="fill:#061D48;" d="M491.091,347.622c0,1.318-1.069,2.387-2.387,2.387c-1.318,0-2.387-1.069-2.387-2.387
					c0-1.319,1.069-2.387,2.387-2.387C490.022,345.235,491.091,346.304,491.091,347.622z"/>
			</g>
			<g>
				<path style="fill:#9995A7;" d="M560.477,372.253h-33.041c-2.564,0-4.643-2.079-4.643-4.643v-5.084
					c0-2.564,2.079-4.643,4.643-4.643h33.041c2.564,0,4.643,2.079,4.643,4.643v5.084
					C565.12,370.174,563.041,372.253,560.477,372.253z"/>
				<g>
					<g>
						<path style="fill:#9995A7;" d="M537.163,375.82l-14.37,9.406L537.163,375.82z"/>
						<g>
							
								<line style="fill:none;stroke:#2C3765;stroke-width:0.5226;stroke-miterlimit:10;" x1="537.163" y1="375.82" x2="525.931" y2="383.173"/>
							<g>
								<polygon style="fill:#6D7DAA;" points="525.142,380.575 522.793,385.226 527.996,384.935 								"/>
							</g>
						</g>
					</g>
					<g>
						<path style="fill:#9995A7;" d="M550.75,375.82l14.37,9.406L550.75,375.82z"/>
						<g>
							
								<line style="fill:none;stroke:#2C3765;stroke-width:0.5226;stroke-miterlimit:10;" x1="550.75" y1="375.82" x2="561.982" y2="383.173"/>
							<g>
								<polygon style="fill:#6D7DAA;" points="559.917,384.935 565.12,385.226 562.771,380.575 								"/>
							</g>
						</g>
					</g>
					<g>
						<path style="fill:#9995A7;" d="M543.956,375.82v9.406V375.82z"/>
						<g>
							
								<line style="fill:none;stroke:#2C3765;stroke-width:0.5226;stroke-miterlimit:10;" x1="543.956" y1="375.82" x2="543.956" y2="381.476"/>
							<g>
								<polygon style="fill:#6D7DAA;" points="541.351,380.714 543.956,385.226 546.562,380.714 								"/>
							</g>
						</g>
					</g>
				</g>
				<g>
					<g>
						<path style="fill:#9995A7;" d="M517.045,397.245l-14.37,9.406L517.045,397.245z"/>
						<g>
							
								<line style="fill:none;stroke:#2C3765;stroke-width:0.5226;stroke-miterlimit:10;" x1="517.045" y1="397.245" x2="505.813" y2="404.597"/>
							<g>
								<polygon style="fill:#6D7DAA;" points="505.023,402 502.675,406.651 507.877,406.36 								"/>
							</g>
						</g>
					</g>
					<g>
						<path style="fill:#9995A7;" d="M523.838,397.245v9.406V397.245z"/>
						<g>
							
								<line style="fill:none;stroke:#2C3765;stroke-width:0.5226;stroke-miterlimit:10;" x1="523.838" y1="397.245" x2="523.838" y2="402.901"/>
							<g>
								<polygon style="fill:#6D7DAA;" points="521.232,402.139 523.838,406.651 526.444,402.139 								"/>
							</g>
						</g>
					</g>
					<g>
						<path style="fill:#9995A7;" d="M545.524,397.245v9.406V397.245z"/>
						<g>
							
								<line style="fill:none;stroke:#2C3765;stroke-width:0.5226;stroke-miterlimit:10;" x1="545.524" y1="397.245" x2="545.524" y2="402.901"/>
							<g>
								<polygon style="fill:#6D7DAA;" points="542.918,402.139 545.524,406.651 548.13,402.139 								"/>
							</g>
						</g>
					</g>
				</g>
				<rect x="513.126" y="387.055" style="fill:#FFBE2E;" width="18.736" height="6.532"/>
				<rect x="558.065" y="387.055" style="fill:#D93838;" width="18.736" height="6.532"/>
				<rect x="535.334" y="387.055" style="fill:#4D6199;" width="18.736" height="6.532"/>
				<rect x="558.065" y="420.237" style="fill:#5485CC;" width="18.736" height="6.532"/>
				<rect x="498.233" y="408.48" style="fill:#6D7DAA;" width="11.235" height="6.271"/>
				<rect x="517.437" y="408.48" style="fill:#6D7DAA;" width="11.235" height="6.271"/>
				<g>
					<g>
						<path style="fill:#9995A7;" d="M571.913,396.722l14.37,9.406L571.913,396.722z"/>
						<g>
							
								<line style="fill:none;stroke:#2C3765;stroke-width:0.5226;stroke-miterlimit:10;" x1="571.913" y1="396.722" x2="583.146" y2="404.075"/>
							<g>
								<polygon style="fill:#6D7DAA;" points="581.081,405.837 586.283,406.128 583.935,401.477 								"/>
							</g>
						</g>
					</g>
					<g>
						<path style="fill:#9995A7;" d="M565.12,396.722v9.406V396.722z"/>
						<g>
							
								<line style="fill:none;stroke:#2C3765;stroke-width:0.5226;stroke-miterlimit:10;" x1="565.12" y1="396.722" x2="565.12" y2="402.378"/>
							<g>
								<polygon style="fill:#6D7DAA;" points="562.514,401.616 565.12,406.128 567.726,401.616 								"/>
							</g>
						</g>
					</g>
				</g>
				
					<rect x="579.49" y="407.957" transform="matrix(-1 -1.224647e-16 1.224647e-16 -1 1170.2148 822.1853)" style="fill:#6D7DAA;" width="11.235" height="6.271"/>
				
					<rect x="560.286" y="407.957" transform="matrix(-1 -1.224647e-16 1.224647e-16 -1 1131.8071 822.1853)" style="fill:#6D7DAA;" width="11.235" height="6.271"/>
				<rect x="558.065" y="431.472" style="fill:#D93838;" width="18.736" height="6.532"/>
				<g>
					<g>
						<path style="fill:#9995A7;" d="M571.913,441.139l14.37,9.406L571.913,441.139z"/>
						<g>
							
								<line style="fill:none;stroke:#2C3765;stroke-width:0.5226;stroke-miterlimit:10;" x1="571.913" y1="441.139" x2="583.146" y2="448.492"/>
							<g>
								<polygon style="fill:#6D7DAA;" points="581.081,450.254 586.283,450.545 583.935,445.894 								"/>
							</g>
						</g>
					</g>
					<g>
						<path style="fill:#9995A7;" d="M565.12,441.139v9.406V441.139z"/>
						<g>
							
								<line style="fill:none;stroke:#2C3765;stroke-width:0.5226;stroke-miterlimit:10;" x1="565.12" y1="441.139" x2="565.12" y2="446.796"/>
							<g>
								<polygon style="fill:#6D7DAA;" points="562.514,446.033 565.12,450.545 567.726,446.033 								"/>
							</g>
						</g>
					</g>
				</g>
				
					<rect x="579.49" y="452.374" transform="matrix(-1 -1.224647e-16 1.224647e-16 -1 1170.2148 911.0193)" style="fill:#5485CC;" width="11.235" height="6.271"/>
				
					<rect x="560.286" y="452.374" transform="matrix(-1 -1.224647e-16 1.224647e-16 -1 1131.8071 911.0193)" style="fill:#5485CC;" width="11.235" height="6.271"/>
				<rect x="539.907" y="408.48" style="fill:#D93838;" width="11.235" height="6.271"/>
				<rect x="497.71" y="419.976" style="fill:#5485CC;" width="33.966" height="15.415"/>
				<g>
					<polyline style="fill:none;stroke:#2C3765;stroke-width:0.5226;stroke-miterlimit:10;" points="532.983,428.859 
						545.785,428.859 545.609,421.112 					"/>
					<g>
						<polygon style="fill:#6D7DAA;" points="548.231,421.815 545.524,417.363 543.021,421.934 						"/>
					</g>
				</g>
				<g>
					<polyline style="fill:none;stroke:#2C3765;stroke-width:0.5226;stroke-miterlimit:10;" points="578.967,434.346 
						591.77,434.346 591.594,426.599 					"/>
					<g>
						<polygon style="fill:#6D7DAA;" points="594.216,427.302 591.509,422.85 589.006,427.421 						"/>
					</g>
				</g>
				<rect x="497.71" y="450.007" style="fill:#FFBE2E;" width="33.966" height="7.332"/>
				<rect x="497.71" y="439.556" style="fill:#D93838;" width="33.966" height="7.332"/>
				<g>
					<polyline style="fill:none;stroke:#2C3765;stroke-width:0.5226;stroke-miterlimit:10;" points="532.983,450.807 
						545.785,450.807 545.609,443.06 					"/>
					<g>
						<polygon style="fill:#6D7DAA;" points="548.231,443.763 545.524,439.31 543.021,443.881 						"/>
					</g>
				</g>
			</g>
		</g>
	</g>
	<g>
		<g>
			<path style="fill:#F4A891;" d="M689.192,497.395l12.001-6.869c1.4-0.801,3.12-0.401,3.824,0.889l0.129,0.237
				c0.704,1.29,0.134,3.001-1.265,3.802l-12.002,6.87c-1.399,0.801-3.12,0.401-3.824-0.889l-0.129-0.237
				C687.223,499.907,687.793,498.196,689.192,497.395z"/>
			<path style="fill:#F4A891;" d="M714.996,501.326c0,0-5.713,7.283-7.309,9.429c-3.087,4.151-5.635,5.528-8.468,3.98l-4.715-4.709
				c-2.19-3.006-3.076-4.54-1.508-7.392l5.16-9.389c1.567-2.852,5.168-3.919,8.002-2.371l5.658,3.091
				C714.649,495.511,716.563,498.473,714.996,501.326z"/>
			<path style="fill:#F4A891;" d="M702.168,499.335l-7.909,9.282c-1.232,1.538-3.053,2.147-4.046,1.355l0,0
				c-0.993-0.793-0.797-2.699,0.435-4.236l7.909-9.282c1.232-1.538,3.053-2.147,4.046-1.355h0
				C703.596,495.891,703.4,497.798,702.168,499.335z"/>
			<path style="fill:#F4A891;" d="M704.623,503.028l-7.909,9.282c-1.232,1.537-3.053,2.147-4.046,1.355l0,0
				c-0.993-0.793-0.797-2.699,0.435-4.236l7.909-9.282c1.232-1.538,3.053-2.147,4.046-1.355l0,0
				C706.051,499.584,705.855,501.49,704.623,503.028z"/>
			<path style="fill:#F4A891;" d="M707.801,507.483l-7.909,9.282c-1.232,1.538-3.053,2.147-4.046,1.355l0,0
				c-0.993-0.793-0.797-2.699,0.435-4.236l7.909-9.282c1.232-1.538,3.053-2.147,4.046-1.354l0,0
				C709.229,504.04,709.033,505.946,707.801,507.483z"/>
			<path style="fill:#F4A891;" d="M738.394,460.778c-1.477,4.661-3.051,9.239-5.276,13.484c-1.2,2.303-2.537,4.519-4.013,6.644
				l-16.095,23.157c-0.958,1.379-2.219,2.303-3.611,2.776c-2.599,0.878-5.656,0.158-8.066-2.211
				c-3.702-3.647-1.562-7.319,1.188-11.27c0,0,18.115-25.439,19.185-28.062c0.982-2.388,15.253-64.326,15.253-64.326
				c1.528-7.471,1.14-11.545,5.29-13.356c4.141-1.824,7.676,6.263,9.68,11.323C751.928,398.935,749.666,425.203,738.394,460.778z"/>
			<path style="fill:#B92B2B;" d="M729.594,423.239c3.012-14.674,5.593-24.237,7.045-31.601c1.451-7.364,8.076-10.511,14.915-2.315
				c6.839,8.196-0.959,27.173-4.308,46.036c-1.977,11.137-9.484,29.434-9.484,29.434l-16.056-8.897
				C721.707,455.896,726.664,437.512,729.594,423.239z"/>
			<polygon style="fill:#FFFFFF;" points="722.484,449.942 731.53,453.851 732.495,460.789 737.261,455.592 742.371,457.672 
				739.248,467.165 719.428,458.506 			"/>
		</g>
		
			<ellipse transform="matrix(0.9915 -0.1301 0.1301 0.9915 -30.1843 104.3875)" style="fill:#B95241;" cx="784.13" cy="283.294" rx="16.185" ry="16.185"/>
		<path style="fill:#DB734C;" d="M776.994,350.409c-0.156,0.244-0.147-2.699-0.133-7.19c0.054-12.342,0.108-36.396-3.393-38.229
			c-9.621-5.031-48.695,22.426-51.1,11.638c-0.571-2.52-0.871-5.142-0.898-7.814c-0.006-0.558,0.003-1.114,0.025-1.661
			c0.158-4.345,1.048-8.497,2.554-12.322c1.286-3.249,2.997-6.279,5.079-8.994c0,0,0,0,0.009-0.014
			c7.097-9.257,18.405-15.057,30.944-14.606c0.57,0.017,1.13,0.055,1.697,0.094c15.047,1.216,27.809,10.451,33.216,24.228
			c1.698,4.304,2.676,9.059,2.778,14.148C798.402,340.649,780.641,344.887,776.994,350.409z"/>
		<path style="fill:#B95241;" d="M776.994,350.409c-0.156,0.244-0.147-2.699-0.133-7.19l0.279-0.99c0,0,12.038-7.762,15.933-23.986
			c2.779-11.582,2.38-19.256,1.922-22.705c1.698,4.304,2.676,9.059,2.778,14.148C798.402,340.649,780.641,344.887,776.994,350.409z"
			/>
		<path style="fill:#F4A891;" d="M760.937,401.119L760.937,401.119c5.626,0.598,10.718-3.515,11.316-9.141l4.767-44.834
			c0.598-5.626-3.515-10.718-9.141-11.316l0,0c-5.626-0.598-10.718,3.515-11.316,9.141l-4.767,44.834
			C751.198,395.429,755.311,400.521,760.937,401.119z"/>
		<g>
			<path style="fill:#FFC7B0;" d="M780.156,332.372c-0.03,0.351-0.073,0.687-0.125,1.036c-0.011,0.107-0.031,0.221-0.049,0.328
				c-0.633,4.316-2.152,8.336-4.336,11.865c-0.106,0.177-0.218,0.346-0.33,0.522c-3.547,5.468-8.711,9.679-14.743,11.916
				c-0.016,0.013-0.023,0.012-0.023,0.012c-2.334,0.866-4.803,1.428-7.35,1.642c-0.934,0.074-1.865,0.12-2.805,0.121
				c-0.318-0.005-0.628-0.016-0.951-0.036c-0.13,0.001-0.195-0.006-0.195-0.006c-1.38-0.082-2.716-0.238-4.031-0.523
				c-0.377-0.062-0.753-0.131-1.125-0.235c-12.253-2.938-21.337-13.835-22.344-26.884c-0.105-1.393-0.133-2.828-0.046-4.258
				l0.131-2.185l0.832-14.56c0.117-2.194,0.372-4.315,0.834-6.349c0.342-1.584,0.838-3.123,1.494-4.594
				c1.72-3.861,3.871-7.292,6.889-10.089c5.636-5.246,13.248-8.263,21.327-7.845c6.05,0.311,11.574,2.518,16.113,6.024
				c0.654,0.511,1.292,1.049,1.904,1.613c3.065,2.807,5.547,6.276,7.246,10.16c0,0,0.006,0.015,0.004,0.029
				c0.449,1.017,0.857,2.08,1.183,3.157c0.059,0.194,0.119,0.374,0.169,0.589c0.397,1.301,0.739,2.647,0.976,4.017
				c0.055,0.302,0.109,0.612,0.155,0.921c0.264,1.67,0.385,3.383,0.302,5.125l-0.011,0.31l-0.067,1.179l-0.073,1.294l-0.089,1.654
				l-0.002,0.014l-0.002,0.087l-0.015,0.28l-0.044,0.755l-0.001,0.014l-0.467,7.864l-0.139,2.604l-0.061,0.984l-0.023,0.215
				c-0.008,0.072-0.007,0.137-0.015,0.208C780.235,331.693,780.206,332.037,780.156,332.372z"/>
			<path style="fill:#FFC4BC;" d="M782.264,331.323c-0.25,0.039-0.513,0.061-0.789,0.068c-0.118,0.024-0.261,0.008-0.398,0.001
				l-0.827-0.044l-1.022-0.051l0.206-3.913l0.05-0.877l0.394-7.105l1.079,0.057l0.784,0.047c0.173,0.004,0.323,0.02,0.486,0.052
				l0.007,0.001c0.236,0.025,0.47,0.072,0.696,0.125l0.007,0.001c1.158,0.268,2.181,0.854,2.944,1.702
				c1.014,1.142,1.614,2.573,1.528,4.206C787.248,328.467,785.029,330.901,782.264,331.323z"/>
		</g>
		<path style="fill:#F4A891;" d="M736.54,331.746c0,0,0.12,2.23,3.23,2.456c2.735,0.199,3.21-1.68,3.21-1.68L736.54,331.746z"/>
		<path style="fill:#DB734C;" d="M779.333,306.294c0,0-51.981-12.732-56.86-2.18c0,0-0.897-11.348,15.581-21.172
			s42.444,2.583,44.102,7.721c1.659,5.137,0.98,8.923,0.98,8.923L779.333,306.294z"/>
		<g>
			<path style="fill:none;stroke:#B95241;stroke-width:1.079;stroke-linecap:round;stroke-miterlimit:10;" d="M748.348,315.731
				c0,0,6.784-2.365,12.075,2.296"/>
			<path style="fill:none;stroke:#B95241;stroke-width:1.079;stroke-linecap:round;stroke-miterlimit:10;" d="M725.288,312.845
				c0,0,6.529-2.44,12.145,1.863"/>
		</g>
		<path style="fill:#07113D;" d="M752.302,326.058L752.302,326.058c0.749,0.08,1.428-0.468,1.508-1.218l0.268-2.521
			c0.08-0.749-0.468-1.428-1.218-1.508l0,0c-0.75-0.08-1.428,0.468-1.508,1.218l-0.268,2.521
			C751.004,325.3,751.552,325.978,752.302,326.058z"/>
		<path style="fill:#07113D;" d="M731.227,323.817L731.227,323.817c0.749,0.08,1.428-0.468,1.508-1.218l0.268-2.521
			c0.08-0.749-0.468-1.428-1.218-1.507l0,0c-0.75-0.08-1.428,0.468-1.508,1.218l-0.268,2.521
			C729.929,323.059,730.477,323.737,731.227,323.817z"/>
		<path style="fill:#D93838;" d="M798.671,419.972l-0.655,10.984l-4.726,79.42l-0.187,3.158h-0.086l-19.076-0.82l-45.54-1.949
			l4.007-47.72l-3.546-43.814c-0.072-0.669-0.086-1.345-0.05-2.014c1.532-23.997,10.43-42.049,27.421-47.245l-1.647,30.132
			c2.05,0,17.314-29.953,19.249-29.622c2.964,0.518,5.647,1.647,8.071,3.309C792.672,381.157,798.103,398.953,798.671,419.972z"/>
		<path style="fill:#D93838;" d="M733.67,338.331l12.109,1.77c0,0-2.049,3.399-6.818,2.892
			C735.117,342.584,733.67,338.331,733.67,338.331z"/>
		<path style="fill:#F4A891;" d="M782.264,331.323c-0.25,0.039-0.513,0.061-0.789,0.068c-0.118,0.024-0.261,0.008-0.398,0.001
			l-0.827-0.044c-0.015,0.346-0.044,0.69-0.094,1.024c-0.03,0.351-0.073,0.687-0.125,1.036c-0.011,0.107-0.031,0.221-0.049,0.328
			c-0.633,4.316-2.152,8.336-4.336,11.865c-0.106,0.177-0.218,0.346-0.33,0.522c-3.547,5.468-8.711,9.679-14.743,11.916
			c-0.016,0.013-0.023,0.012-0.023,0.012c-2.334,0.866-4.803,1.428-7.35,1.642c-0.934,0.074-1.865,0.12-2.805,0.121
			c-0.318-0.005-0.628-0.016-0.951-0.036c1.494,0.036,10.216-1.021,17.111-10.958c7.476-10.779,10.228-32.128,10.228-32.128
			s-0.103-9.234,0.433-9.177c0.172,0.018,1.708,0.536,3.745,1.244c0.264,1.67,0.385,3.383,0.302,5.125l-0.011,0.31l-0.067,1.179
			l-0.073,1.294l-0.089,1.654l-0.002,0.014l-0.002,0.087l-0.015,0.28l-0.044,0.755l0.784,0.047c0.173,0.004,0.323,0.02,0.486,0.052
			l0.007,0.001c0.236,0.025,0.47,0.072,0.696,0.125l0.007,0.001c1.158,0.268,2.181,0.854,2.944,1.702
			c1.014,1.142,1.614,2.573,1.528,4.206C787.248,328.467,785.029,330.901,782.264,331.323z"/>
		<path style="fill:#DB734C;" d="M729.718,300.657c-0.441,4.148-4.161,7.153-8.309,6.712c-4.148-0.441-7.153-4.161-6.712-8.309
			c0.441-4.148,4.161-7.153,8.309-6.712C727.154,292.789,730.159,296.509,729.718,300.657z"/>
		<path style="fill:#DB734C;" d="M742.975,300.137c-0.441,4.148-4.161,7.153-8.309,6.712c-4.148-0.441-7.153-4.161-6.712-8.309
			c0.441-4.148,4.161-7.153,8.309-6.712C740.411,292.269,743.416,295.989,742.975,300.137z"/>
		<path style="fill:#DB734C;" d="M757.351,301.003c-0.441,4.148-4.161,7.153-8.309,6.712c-4.148-0.441-7.153-4.161-6.712-8.309
			c0.441-4.148,4.161-7.153,8.309-6.712C754.787,293.134,757.792,296.855,757.351,301.003z"/>
		<circle style="fill:#DB734C;" cx="764.722" cy="303.112" r="7.553"/>
		<path style="fill:#DB734C;" d="M771.162,298.673l5.855,26.41c0.356,1.605,2.565,1.8,3.197,0.282l8.323-20.022
			C788.537,305.343,782.321,284.428,771.162,298.673z"/>
		<polygon style="fill:#FFFFFF;" points="776.286,370.252 776.645,362.699 763.937,362.699 757.703,382.84 756.265,362.939 
			751.469,362.699 750.031,416.648 		"/>
		<g>
			<path style="fill:#07113D;" d="M743.394,537.894l26.88,2.043c11.874,0.902,22.119-4.543,22.774-12.566l-0.159-14.744
				l-68.355-1.196l-0.871,10.668C723.009,530.121,731.52,536.991,743.394,537.894z"/>
			<g>
				<g>
					<path style="fill:#07113D;" d="M741.86,731.239h-1.737c-1.042,0-1.887-0.845-1.887-1.887v-26.33l7.88,1.652l-2.379,24.857
						C743.645,730.5,742.832,731.239,741.86,731.239z"/>
					<g>
						<path style="fill:#07113D;" d="M722.718,701.407l-9.4,16.691c-1.591,2.616-4.377,4.261-7.423,4.383l0,0
							c-2.43,0.091-4.395,2.024-4.539,4.465l-0.001,0.011c-0.162,2.753,2.031,5.063,4.773,5.029l7.614-0.009
							c3.951-0.005,7.756-1.51,10.653-4.214l20.59-19.222c0.979-1.303,1.433-2.929,1.27-4.552l0,0
							c-0.369-3.677-3.723-6.291-7.358-5.736L722.718,701.407z"/>
						<path style="fill:#B95241;" d="M722.241,699.278l-9.401,16.691c-1.591,2.617-4.377,4.262-7.423,4.383l0,0
							c-2.43,0.091-4.395,2.025-4.539,4.465l-0.001,0.011c-0.162,2.753,2.031,5.063,4.773,5.029l5.456-0.006
							c5.338-0.006,10.48-2.04,14.395-5.695l19.007-17.744c0.979-1.303,1.433-2.929,1.27-4.552l0,0
							c-0.369-3.677-3.723-6.291-7.357-5.736L722.241,699.278z"/>
						
							<line style="fill:none;stroke:#07113D;stroke-width:1.1711;stroke-linecap:round;stroke-miterlimit:10;" x1="714.996" y1="711.708" x2="719.241" y2="714.294"/>
						
							<line style="fill:none;stroke:#07113D;stroke-width:1.1711;stroke-linecap:round;stroke-miterlimit:10;" x1="716.725" y1="708.369" x2="720.97" y2="710.954"/>
						
							<line style="fill:none;stroke:#07113D;stroke-width:1.1711;stroke-linecap:round;stroke-miterlimit:10;" x1="718.437" y1="705.175" x2="722.681" y2="707.761"/>
					</g>
				</g>
				<g>
					<path style="fill:#07113D;" d="M722.984,699.019l20.59,0.445l-6.516-72.953c-0.391-2.56-0.438-5.161-0.143-7.731l16.469-95.823
						l-29.374-3.389l-13.824,91.746c-0.616,5.37-0.516,10.809,0.298,16.16L722.984,699.019z"/>
				</g>
				<rect x="720.887" y="694.634" style="fill:#9995A7;" width="24.403" height="5.148"/>
			</g>
			<g>
				<g>
					<path style="fill:#07113D;" d="M789.523,732.764h-1.737c-1.042,0-1.887-0.845-1.887-1.887v-26.33l7.88,1.652l-2.379,24.857
						C791.308,732.025,790.495,732.764,789.523,732.764z"/>
					<g>
						<path style="fill:#07113D;" d="M770.381,702.932l-9.4,16.691c-1.591,2.616-4.377,4.261-7.423,4.383l0,0
							c-2.43,0.091-4.395,2.025-4.539,4.465l-0.001,0.011c-0.162,2.753,2.031,5.063,4.773,5.029l7.614-0.009
							c3.951-0.005,7.756-1.51,10.653-4.214l20.59-19.222c0.979-1.303,1.433-2.929,1.27-4.552l0,0
							c-0.369-3.677-3.723-6.291-7.357-5.736L770.381,702.932z"/>
						<path style="fill:#B95241;" d="M769.904,700.804l-9.401,16.691c-1.591,2.617-4.377,4.261-7.423,4.383l0,0
							c-2.43,0.091-4.395,2.024-4.539,4.465l-0.001,0.011c-0.162,2.753,2.031,5.063,4.773,5.029l5.456-0.006
							c5.338-0.006,10.48-2.04,14.395-5.695l19.007-17.744c0.979-1.303,1.433-2.929,1.27-4.553l0,0
							c-0.369-3.677-3.723-6.291-7.357-5.736L769.904,700.804z"/>
						
							<line style="fill:none;stroke:#07113D;stroke-width:1.1711;stroke-linecap:round;stroke-miterlimit:10;" x1="762.659" y1="713.233" x2="766.904" y2="715.819"/>
						
							<line style="fill:none;stroke:#07113D;stroke-width:1.1711;stroke-linecap:round;stroke-miterlimit:10;" x1="764.388" y1="709.894" x2="768.633" y2="712.48"/>
						
							<line style="fill:none;stroke:#07113D;stroke-width:1.1711;stroke-linecap:round;stroke-miterlimit:10;" x1="766.099" y1="706.7" x2="770.344" y2="709.286"/>
					</g>
				</g>
				<polygon style="fill:#07113D;" points="770.838,700.353 791.364,700.48 792.635,520.76 758.469,519.003 				"/>
				<rect x="769.694" y="695.587" style="fill:#9995A7;" width="23.069" height="5.338"/>
			</g>
		</g>
		<rect x="728.091" y="508.721" style="fill:#6D7DAA;" width="65.458" height="6.833"/>
		<path style="opacity:0.37;fill:#591239;" d="M798.016,430.956l-4.587,77.046l-20.021,1.079c0,0-0.719-41.361-1.079-53.949
			c-0.36-12.588,15.106-48.914,15.106-48.914S792.938,416.706,798.016,430.956z"/>
		<path style="fill:#FFC7B0;" d="M733.005,501.841l13.716-3.789c1.599-0.442,3.224,0.384,3.61,1.835l0.071,0.266
			c0.386,1.451-0.607,3-2.206,3.442l-13.716,3.789c-1.599,0.442-3.224-0.384-3.61-1.836l-0.071-0.266
			C730.413,503.831,731.405,502.282,733.005,501.841z"/>
		<g>
			<path style="fill:#C2C2C7;" d="M739.772,536.489c-0.844,0.578-1.821,0.988-2.898,1.175l-27.989,4.938
				c-4.045,0.714-7.894-1.982-8.608-6.027l-8.466-47.956c-0.715-4.045,1.986-7.902,6.027-8.608l0.314-0.059l27.674-4.879
				c4.045-0.715,7.894,1.982,8.612,6.019l3.251,18.402l3.237,18.366l1.975,11.195C743.417,532.028,742.103,534.892,739.772,536.489z
				"/>
			<path style="fill:#FFFFFF;" d="M717.362,496.723c0.378,1.97-0.614,3.816-2.214,4.123c-1.601,0.307-3.205-1.041-3.582-3.011
				s0.614-3.816,2.214-4.123C715.38,493.405,716.984,494.753,717.362,496.723z"/>
		</g>
		<path style="fill:#6D7DAA;" d="M745.428,523.326l-10.531,7.857c-1.739,1.385-3.864,1.558-4.717,0.395
			c-0.282-0.385-0.393-0.857-0.355-1.383c0.078-1.069,0.789-2.337,1.967-3.262l7.316-5.459l-0.542-0.932l-10.311,7.709
			c-1.738,1.367-3.863,1.549-4.716,0.376c-0.282-0.385-0.393-0.857-0.355-1.382c0.078-1.069,0.788-2.319,1.966-3.253l10.773-8.048
			l-0.072-0.142c-0.114-0.309-0.23-0.599-0.337-0.88l-8.5,6.347c-1.749,1.384-3.882,1.557-4.735,0.384
			c-0.273-0.375-0.384-0.857-0.346-1.382c0.078-1.069,0.797-2.327,1.966-3.253l11.022-8.231c0.049-0.042,0.106-0.083,0.163-0.116
			c0.254-0.491,0.591-0.995,1.067-1.525L745.428,523.326z"/>
		<path style="fill:#FFC7B0;" d="M757.878,512.182c0,0-7.521,5.771-9.649,7.493c-4.117,3.331-7.008,4.056-9.464,1.816l-3.559-5.835
			c-1.451-3.519-1.959-5.258,0.315-7.686l7.487-7.992c2.274-2.428,6.144-2.582,8.6-0.342l4.903,4.471
			C758.966,506.347,760.152,509.754,757.878,512.182z"/>
		<path style="fill:#FFC7B0;" d="M737.22,513.231l-10.213,7.198c-1.614,1.212-3.588,1.359-4.386,0.327h0
			c-0.799-1.032-0.132-2.868,1.482-4.079l10.213-7.198c1.614-1.212,3.588-1.359,4.386-0.327l0,0
			C739.501,510.183,738.834,512.019,737.22,513.231z"/>
		<path style="fill:#FFC7B0;" d="M738.41,519.379l-10.213,7.198c-1.614,1.212-3.588,1.359-4.386,0.327l0,0
			c-0.799-1.032-0.132-2.868,1.482-4.079l10.213-7.198c1.614-1.212,3.588-1.359,4.387-0.327l0,0
			C740.691,516.332,740.024,518.168,738.41,519.379z"/>
		<path style="fill:#FFC7B0;" d="M744.593,521.991l-10.213,7.198c-1.614,1.212-3.588,1.359-4.386,0.327l0,0
			c-0.799-1.032-0.132-2.868,1.482-4.079l10.213-7.198c1.614-1.212,3.588-1.359,4.386-0.327l0,0
			C746.874,518.943,746.207,520.779,744.593,521.991z"/>
		<g>
			<path style="fill:#FFC7B0;" d="M791.324,477.948c-2.455,4.343-5.337,8.371-8.614,12.01c-1.771,1.976-3.657,3.833-5.659,5.564
				l-21.838,18.867c-1.3,1.124-2.791,1.722-4.302,1.841c-2.82,0.218-5.704-1.259-7.533-4.203c-2.807-4.531,0.242-7.626,3.973-10.845
				l19.603-18.891c2.106-2.104,4.019-4.333,5.739-6.66c1.573-2.115,2.979-4.312,4.238-6.581c6.68-12.082,8.977-26.164,7.04-40.194
				l-3.172-22.962c-0.763-5.505,2.354-10.582,6.958-11.335c4.598-0.767,8.957,3.088,9.713,8.592l3.178,22.969
				C803.217,444.726,799.726,463.132,791.324,477.948z"/>
		</g>
		<path style="fill:#F4A891;" d="M778.707,466.064l14.392,8.897c-2.455,4.343-4.875,8.578-8.151,12.217l-11.362-12.769
			L778.707,466.064z"/>
		<path style="fill:#D93838;" d="M781.554,452.889c0.15-0.674,2.842-4.179,0.679-18.876c-2.163-14.697-4.965-30.134-1.693-37.051
			s11.837-10.449,16.664-0.636c4.826,9.813,6.883,45.044,5.36,56.473C801.041,464.229,792,480.652,792,480.652l-17.533-12.814
			C774.467,467.838,779.839,460.612,781.554,452.889z"/>
		<polygon style="fill:#FFFFFF;" points="777.623,462.528 785.717,468.655 784.97,475.756 791.027,471.811 795.631,475.146 
			790.16,483.749 772.447,470.23 		"/>
		<path style="fill:#FFC7B0;" d="M690.357,509.349L690.357,509.349c0.761,0.761,2.007,0.761,2.769,0l2.735-2.735
			c0.761-0.762,0.761-2.007,0-2.769l0,0c-0.761-0.762-2.007-0.762-2.769,0l-2.735,2.735
			C689.596,507.341,689.596,508.587,690.357,509.349z"/>
		<path style="fill:#FFC7B0;" d="M692.62,513.814L692.62,513.814c0.762,0.761,2.007,0.761,2.769,0l2.735-2.735
			c0.761-0.761,0.761-2.007,0-2.769l0,0c-0.762-0.761-2.007-0.761-2.769,0l-2.735,2.735
			C691.859,511.806,691.859,513.052,692.62,513.814z"/>
		<path style="fill:#FFC7B0;" d="M694.333,517.877L694.333,517.877c0.761,0.761,2.007,0.761,2.769,0l2.735-2.735
			c0.761-0.762,0.761-2.007,0-2.769l0,0c-0.761-0.762-2.007-0.762-2.769,0l-2.735,2.735
			C693.572,515.869,693.572,517.115,694.333,517.877z"/>
	</g>
	<path style="opacity:0.6;fill:#07113D;" d="M335.669,398.334c-2.7,8.4-25.17,37.47-43.57,60.11v-30.84l26.21-21.4L335.669,398.334z
		"/>
</g>
<g>
	<g>
		<g>
			<g>
				<g>
					<path style="fill:#F4A891;" d="M319.5,397.348l11.523-10.377c1.048-0.944,1.133-2.574,0.189-3.622l0,0
						c-0.944-1.048-2.574-1.133-3.622-0.19l-11.523,10.377c-1.048,0.944-1.133,2.574-0.189,3.622l0,0
						C316.823,398.207,318.452,398.292,319.5,397.348z"/>
					<path style="fill:#F4A891;" d="M311.418,403.299l7.305-13.679c0.664-1.244,0.19-2.806-1.054-3.47l0,0
						c-1.244-0.664-2.806-0.19-3.47,1.054l-7.305,13.679c-0.664,1.244-0.19,2.806,1.054,3.47l0,0
						C309.192,405.018,310.753,404.543,311.418,403.299z"/>
					<path style="fill:#F4A891;" d="M321.58,402.767l14.063-11.795c1.081-0.906,1.223-2.532,0.317-3.613l0,0
						c-0.906-1.081-2.532-1.223-3.613-0.317l-14.063,11.795c-1.081,0.906-1.223,2.532-0.317,3.613l0,0
						C318.874,403.53,320.499,403.673,321.58,402.767z"/>
					<path style="fill:#F4A891;" d="M321.609,410.131l14.063-11.795c1.081-0.906,1.223-2.532,0.317-3.613l0,0
						c-0.906-1.081-2.532-1.223-3.613-0.317l-14.063,11.795c-1.081,0.906-1.223,2.532-0.317,3.613l0,0
						C318.902,410.895,320.528,411.037,321.609,410.131z"/>
				</g>
				<path style="fill:#F4A891;" d="M319.761,390.154c-0.162,0.127-2.171,1.326-4.352,2.618c-3.766,2.231-6.947,5.328-9.28,9.032
					l-4.468,7.092c0,0,10.394,8.689,10.929,8.411c8.832-4.581,15.163-12.557,15.163-12.557L319.761,390.154z"/>
			</g>
			<polygon style="fill:#FFFFFF;" points="298.759,406.474 304.67,401.674 318.112,419.22 310.404,424.064 			"/>
			<g>
				<path style="fill:#181827;" d="M315.259,423.627c0,0-37.028,29.159-37.148,29.261c-11.211,9.144-27.899,11.62-39.644,3.038
					c-1.76-1.286-5.767-5.164-7.365-7.012c-2.01-2.326-19.578-34.833-19.578-34.833l14.309-32.788c0,0,20.259,42.622,21.503,44.949
					c2.131,3.984,6.071,7.472,8.216,7.8c3.747,0.622,5.937-0.024,8.961-1.752c14.904-8.484,35.767-28.491,35.767-28.491
					L315.259,423.627z"/>
			</g>
		</g>
		<path style="fill:#591239;" d="M208.876,689.646c-0.128,1.71-0.803,26.116-0.803,26.116l18.051,0.337l-0.4-30.592L208.876,689.646
			z"/>
		<path style="fill:#25253A;" d="M200.559,523.725c-0.031,0.206-0.013,1.339,0.047,3.282c0.884,28.423,5.865,183.457,5.865,183.457
			l23.283-0.791l6.158-181.493L200.559,523.725z"/>
		<g>
			<path style="fill:#884C2E;" d="M206.401,730.718l47.622,0.344c2.84,0.021,5.157-2.278,5.176-5.135l0,0
				c0.015-2.2-1.356-4.169-3.416-4.908l-23.507-8.438l-25.758,0.446L206.401,730.718z"/>
			<path style="fill:#07113D;" d="M254.956,732.399l-48.198,0.011l-0.003-3.475l51.665-0.011v0.008
				C258.422,730.846,256.87,732.399,254.956,732.399z"/>
			<g>
				
					<line style="fill:none;stroke:#07113D;stroke-width:1.1468;stroke-linecap:round;stroke-miterlimit:10;" x1="231.698" y1="719.586" x2="237.286" y2="713.573"/>
				
					<line style="fill:none;stroke:#07113D;stroke-width:1.1468;stroke-linecap:round;stroke-miterlimit:10;" x1="235.797" y1="721.324" x2="241.384" y2="715.31"/>
				
					<line style="fill:none;stroke:#07113D;stroke-width:1.1468;stroke-linecap:round;stroke-miterlimit:10;" x1="239.722" y1="723.65" x2="246.013" y2="716.831"/>
			</g>
		</g>
		<path style="fill:#591239;" d="M168.011,689.348c-0.098,1.702-0.342,25.974-0.342,25.974l18.054,0.015l-0.939-30.402
			L168.011,689.348z"/>
		<path style="fill:#25253A;" d="M156.772,524.569c-0.027,0.205,0.01,1.332,0.105,3.261c1.385,28.237,9.096,182.253,9.096,182.253
			l23.266-1.199l2.96-180.513L156.772,524.569z"/>
		<g>
			<path style="fill:#A36440;" d="M165.893,730.312l47.587,1.84c2.838,0.11,5.227-2.102,5.337-4.939l0,0
				c0.085-2.185-1.223-4.185-3.258-4.985l-23.227-9.123l-25.759-0.367L165.893,730.312z"/>
			<path style="fill:#07113D;" d="M214.383,733.51l-48.186-1.505l0.108-3.453l51.639,1.613l0,0
				C217.884,732.071,216.29,733.569,214.383,733.51z"/>
			<g>
				
					<line style="fill:none;stroke:#07113D;stroke-width:1.1434;stroke-linecap:round;stroke-miterlimit:10;" x1="191.532" y1="720.046" x2="197.309" y2="714.247"/>
				
					<line style="fill:none;stroke:#07113D;stroke-width:1.1434;stroke-linecap:round;stroke-miterlimit:10;" x1="195.574" y1="721.901" x2="201.35" y2="716.102"/>
				
					<line style="fill:none;stroke:#07113D;stroke-width:1.1434;stroke-linecap:round;stroke-miterlimit:10;" x1="199.423" y1="724.336" x2="205.927" y2="717.758"/>
			</g>
		</g>
		<path style="fill:#25253A;" d="M237.16,519.613c0.5,5.178-0.885,10.102-3.589,14.097c-3.457,5.124-9.105,8.726-15.751,9.368
			l-35.976,3.476c-1.07,0.103-2.124,0.125-3.164,0.065c-2.677-0.12-5.243-0.757-7.595-1.805c-0.419-0.178-0.829-0.379-1.229-0.594
			c-6.229-3.246-10.749-9.484-11.475-16.995l-0.443-11.479l77.429-8.16L237.16,519.613z"/>
		<g>
			<path style="fill:#F4A891;" d="M195.054,384.157l-3.31,0.587c-5.774,1.024-11.337-2.862-12.361-8.637l-6.317-35.615
				c-1.024-5.774,2.862-11.337,8.637-12.361l3.31-0.587c5.774-1.024,11.337,2.862,12.361,8.637l6.317,35.615
				C204.715,377.57,200.829,383.133,195.054,384.157z"/>
			<path style="fill:#2B1B40;" d="M227.837,295.698c0.061,0.575,0.11,1.151,0.147,1.728c0.164,2.782,0.04,5.534-0.366,8.198
				c-1.723,11.401-8.448,21.375-18.091,27.305c-4.788,2.95-10.298,4.896-16.267,5.528c-9.664,1.022-17.254,6.201-24.641,1.053
				c-2.381-1.657-4.575-3.56-6.521-5.702c-0.765-0.844-1.497-1.704-2.185-2.603c-4.197-5.486-8.632-19.959-9.411-27.324
				c-2.197-20.771,12.382-39.45,32.82-42.549c0.584-0.086,1.169-0.159,1.756-0.221c13.018-1.377,25.204,3.832,33.261,12.954
				c0.013,0.01,0.013,0.01,0.013,0.01c2.359,2.68,4.363,5.705,5.932,8.99C226.127,286.937,227.36,291.194,227.837,295.698z"/>
			<g>
				<path style="fill:#FFC4BC;" d="M178.236,312.602c0.103,0.841,0.053,1.674-0.155,2.466c-0.227,0.946-0.646,1.985-1.251,2.765
					c-1.098,1.403-2.698,2.534-4.607,2.768l-4.102,0.507l-3.146,0.395l-1.18-9.336l0.011-0.002l-0.225-1.725l-0.168-1.341
					l-0.148-1.228l-0.045-0.317l0.011-0.002l7.238-0.901c1.829-0.231,3.578,0.271,4.963,1.268c0.839,0.606,1.539,1.411,2.04,2.333
					C177.876,310.97,178.131,311.75,178.236,312.602z"/>
				<path style="fill:#FFC7B0;" d="M226.907,299.917l1.888,15.098l0.285,2.26c0.194,1.487,0.262,2.985,0.242,4.44
					c-0.223,13.672-9.389,25.761-22.547,29.814c-0.393,0.139-0.804,0.247-1.205,0.341c-1.415,0.402-2.865,0.671-4.364,0.867
					c-1.453,0.188-2.881,0.255-4.312,0.242c-2.79-0.016-5.518-0.403-8.118-1.115c0,0-0.011,0.002-0.024-0.008
					c-11.325-3.089-20.379-12.236-22.872-24.069c-0.075-0.358-0.148-0.705-0.201-1.067c-0.096-0.413-0.15-0.844-0.203-1.276
					l-0.04-0.225l-0.135-1.021l-0.327-2.694l-1.175-9.244l-0.005-0.092l-0.002-0.012l-0.211-1.716l-0.168-1.341l-0.148-1.228
					l-0.033-0.319c-0.251-2.139-0.187-4.264,0.085-6.332c0.173-1.448,0.453-2.879,0.8-4.265c0.041-0.228,0.088-0.422,0.144-0.629
					c0.285-1.142,0.651-2.287,1.072-3.383c-0.002-0.011,0.007-0.025,0.007-0.025c1.592-4.184,4.062-8.001,7.215-11.174
					c0.631-0.634,1.288-1.25,1.963-1.834c4.71-4.018,10.586-6.767,17.154-7.583c8.783-1.093,17.278,1.43,23.774,6.432
					c3.481,2.669,6.058,6.067,8.187,9.952c0.82,1.48,1.456,3.039,1.942,4.661C226.208,295.453,226.631,297.643,226.907,299.917z"/>
				<path style="fill:#FFC4BC;" d="M166.946,311.736l1.174,9.372l0.786,6.329l-2.488,0.314c-0.182,0.02-0.364,0.041-0.539,0.037
					c-4.197,0.234-7.958-2.966-8.487-7.123c-0.278-2.157,0.397-4.112,1.666-5.73c1.137-1.444,2.802-2.402,4.735-2.767l0.011-0.002
					c0.221-0.062,0.413-0.096,0.642-0.114L166.946,311.736z"/>
			</g>
			<path style="fill:#F4A891;" d="M200.318,352.778c0,0-5.563,1.374-11.543-0.914c0,0-0.011,0.002-0.024-0.008
				c-11.325-3.089-20.379-12.236-22.872-24.069c-4.197,0.234-7.958-2.966-8.487-7.123c-0.278-2.157,0.397-4.112,1.666-5.73
				c1.137-1.444,2.802-2.402,4.735-2.767l-0.002-0.012l-0.211-1.716l-0.168-1.341l-0.148-1.228l-0.045-0.317l0.011-0.002
				c-0.251-2.139-0.187-4.264,0.085-6.332c3.834-3.131,8.089-4.35,11.499,0.538c0,0,0.179,2.453,0.616,6.161
				c0.319,2.777,0.772,6.25,1.398,9.913c1.267,7.533,3.208,15.863,6.049,20.62C188.93,348.608,200.318,352.778,200.318,352.778z"/>
			<g>
				<path style="fill:#2B1B40;" d="M223.661,301.607l-9.945,1.764c-0.98,0.174-1.925-0.486-2.099-1.466l0,0
					c-0.174-0.98,0.486-1.925,1.466-2.099l9.945-1.764c0.98-0.174,1.925,0.486,2.099,1.466l0,0
					C225.301,300.489,224.641,301.433,223.661,301.607z"/>
				<path style="fill:#2B1B40;" d="M199.455,305.9l-9.945,1.764c-0.98,0.174-1.925-0.486-2.099-1.466l0,0
					c-0.174-0.98,0.486-1.925,1.466-2.099l9.945-1.764c0.98-0.174,1.925,0.486,2.099,1.466l0,0
					C201.096,304.782,200.436,305.726,199.455,305.9z"/>
				<path style="fill:#FFFFFF;" d="M205.378,331.033c1.961,1.991,4.233,2.478,6.639,2.177c2.869-0.358,5.852-2.199,6.42-4.651
					L205.378,331.033z"/>
				<path style="fill:#F4A891;" d="M215.057,320.926c0.013,0.047-0.193,0.029-0.193,0.029c0.237,1.607-0.924,3.123-4.372,3.632
					l-2.638-12.531C212.336,316.051,214.342,318.356,215.057,320.926z"/>
			</g>
		</g>
		<path style="fill:#080B2E;" d="M159.937,536.319c0,0,31.634-3.43,31.253-4.574c-0.381-1.143-0.381-14.483-0.381-14.483
			s25.155-4.193,25.155-2.668c0,1.525,2.287,13.34,2.287,13.34l18.676-3.43l-0.381-19.819l-81.182,8.385L159.937,536.319z"/>
		<g>
			<polygon style="fill:#FFFFFF;" points="220.823,507.185 183.094,510.958 170.203,356.895 181.836,356.266 192.84,385.035 
				195.259,356.182 205.103,355.323 			"/>
		</g>
		<path style="fill:#25253A;" d="M190.954,527.604c0,0-8.934,1.302-15.385,2.453c-2.254,0.396-4.82,0.773-7.631,1.075
			c-3.943,0.415-8.376,0.679-13.13,0.604c-0.293,0-0.566-0.104-0.83-0.189l-7.678-101.087c-0.094-0.792-0.179-1.575-0.264-2.33
			c-1.707-15.45-1.179-24.222-1.387-37.532c-0.038-1.915-0.075-3.933-0.151-6.065c-0.047-1.273,0.094-2.462,0.377-3.594
			c1.49-5.933,7.103-10.074,13.243-13.158c3.698-1.849,7.584-3.33,10.866-4.565c1.528-0.585,1.21-0.324,1.999-1.047L190.954,527.604
			z"/>
		<path style="fill:#25253A;" d="M241.496,521.455l-6.243,0.583l-14.338,1.326c0,0-16.717-161.392-15.242-160.843
			c2.504,0.937,5.202,2.39,7.855,4.288c5.443,3.876,10.691,9.627,13.63,16.625c0.846,1.99,1.498,4.094,1.898,6.278
			c0.023,0.08,0.046,0.171,0.057,0.251C231.606,403.752,241.496,521.455,241.496,521.455z"/>
		<g>
			<path style="fill:#9995A7;" d="M195.871,394.69c0.092,1.038-0.675,1.953-1.713,2.045c-1.038,0.092-1.953-0.675-2.045-1.713
				c-0.092-1.038,0.675-1.953,1.713-2.045C194.864,392.885,195.779,393.652,195.871,394.69z"/>
			<path style="fill:#9995A7;" d="M197.546,413.638c0.092,1.038-0.675,1.954-1.713,2.045c-1.038,0.092-1.954-0.675-2.045-1.713
				c-0.092-1.038,0.675-1.954,1.713-2.045C196.538,411.833,197.454,412.6,197.546,413.638z"/>
			<path style="fill:#9995A7;" d="M199.22,432.586c0.092,1.038-0.675,1.953-1.713,2.045c-1.038,0.092-1.953-0.675-2.045-1.713
				c-0.092-1.038,0.675-1.953,1.713-2.045C198.213,430.781,199.128,431.548,199.22,432.586z"/>
			<path style="fill:#9995A7;" d="M200.894,451.534c0.092,1.038-0.675,1.954-1.713,2.045c-1.038,0.092-1.954-0.675-2.045-1.713
				c-0.092-1.038,0.675-1.954,1.713-2.045C199.887,449.73,200.803,450.497,200.894,451.534z"/>
			<path style="fill:#9995A7;" d="M202.569,470.483c0.092,1.038-0.675,1.953-1.713,2.045s-1.953-0.675-2.045-1.713
				c-0.092-1.038,0.675-1.953,1.713-2.045C201.561,468.678,202.477,469.445,202.569,470.483z"/>
		</g>
		<polygon style="fill:#FFFFFF;" points="181.836,356.266 180.264,367.271 171.641,367.363 170.203,356.895 		"/>
		<polygon style="fill:#FFFFFF;" points="195.259,356.182 198.736,365.62 205.685,365.527 206.518,355.008 		"/>
		<path style="fill:#2B1B40;" d="M162.342,309.733l1.55,7.529c0.333,1.615,2.084,2.5,3.581,1.809l0,0
			c0.725-0.335,1.251-0.983,1.425-1.762c0.776-3.479,3.136-13.497,5.706-18.894c3.144-6.603,10.69-6.917,10.69-6.917l10.032,2.422
			c3.168,0.765,5.748-2.581,4.203-5.451l-0.4-0.744l12.909,2.979c2.796,0.645,4.548-2.095,3.688-4.832
			c-0.013-0.04,0.008-0.053,0.067-0.033c0.51,0.17,7.443,0.34,13.711,0.46c3.578,0.069,5.219-4.411,2.456-6.685
			c-7.76-6.388-20.05-15.16-30.63-16.727c-16.978-2.515-38.673,17.922-40.245,22.638
			C159.513,290.239,162.342,309.733,162.342,309.733z"/>
		<path style="fill:#07113D;" d="M197.213,316.666L197.213,316.666c-0.719,0.152-1.432-0.313-1.583-1.032l-0.648-3.077
			c-0.152-0.719,0.313-1.432,1.032-1.583l0,0c0.719-0.151,1.432,0.313,1.583,1.032l0.648,3.077
			C198.397,315.802,197.932,316.514,197.213,316.666z"/>
		<path style="fill:#07113D;" d="M220.244,312.028L220.244,312.028c-0.719,0.151-1.432-0.313-1.583-1.032l-0.648-3.077
			c-0.152-0.719,0.313-1.432,1.032-1.583l0,0c0.719-0.152,1.432,0.313,1.583,1.032l0.648,3.077
			C221.428,311.164,220.963,311.877,220.244,312.028z"/>
		<path style="fill:#181827;" d="M162.803,530.924c-3.943,0.415-3.242,0.887-7.996,0.811c-0.293,0-0.566-0.104-0.83-0.189
			l-8.153-104.694c-0.094-0.792,4.172-7.106,4.087-7.86C153.128,430.369,165.614,530.623,162.803,530.924z"/>
		<g>
			<g>
				<path style="fill:#FFC7B0;" d="M158.203,518.807l18.212,7.659c1.33,0.559,2.876-0.071,3.435-1.401l0,0
					c0.562-1.336-0.066-2.874-1.401-3.435l-18.212-7.659c-1.33-0.559-2.876,0.071-3.435,1.401v0
					C156.242,516.702,156.873,518.248,158.203,518.807z"/>
			</g>
			<g>
				<path style="fill:#C2C2C7;" d="M213.432,554.192l-40.452,26.005c-4.384,2.818-10.222,1.549-13.041-2.835l-15.412-23.975
					c-2.818-4.384-1.549-10.223,2.835-13.041l40.452-26.005c4.384-2.818,10.222-1.549,13.041,2.835l15.412,23.975
					C219.086,545.535,217.816,551.374,213.432,554.192z"/>
			</g>
			<g style="opacity:0.51;">
				<g>
					<path style="fill:#85807E;" d="M166.629,543.037c0.087-0.215,10.233-10.439,8.729-12.831
						c-2.504-3.983-5.907-8.087-9.414-11.338l-6.715-6.226c0,0-8.505,9.452-8.965,9.927c-6.403,6.619,8.302,17.218,8.302,17.218
						S164.673,547.838,166.629,543.037z"/>
				</g>
				<g>
					<path style="fill:#85807E;" d="M167.267,529.911l15.086,14.806c1.102,1.081,3.008,0.766,4.237-0.701l0,0
						c1.229-1.467,1.332-3.552,0.231-4.633l-15.086-14.806c-1.102-1.081-3.008-0.766-4.237,0.701l0,0
						C166.27,526.745,166.166,528.83,167.267,529.911z"/>
				</g>
				<g>
					<path style="fill:#85807E;" d="M166.125,538.341l12.213,11.775c1.111,1.071,2.831,0.965,3.822-0.235l0,0
						c0.991-1.201,0.893-3.059-0.218-4.13l-12.213-11.775c-1.111-1.071-2.83-0.965-3.821,0.235l0,0
						C164.917,535.412,165.015,537.27,166.125,538.341z"/>
				</g>
				<g>
					<path style="fill:#85807E;" d="M155.999,537.824l14.456,13.938c1.111,1.071,2.83,0.965,3.821-0.235h0
						c0.991-1.201,0.893-3.059-0.218-4.13l-14.456-13.938c-1.111-1.071-2.83-0.965-3.821,0.235h0
						C154.79,534.894,154.888,536.753,155.999,537.824z"/>
				</g>
			</g>
			<g>
				<g>
					<path style="fill:#FFC7B0;" d="M166.076,539.902c0.085-0.193,9.918-9.362,8.461-11.507c-2.427-3.572-5.726-7.253-9.124-10.169
						l-6.509-5.583c0,0-8.243,8.477-8.689,8.903c-6.206,5.937,8.047,15.442,8.047,15.442S164.18,544.207,166.076,539.902z"/>
				</g>
				<g>
					<path style="fill:#FFC7B0;" d="M166.574,528.255l14.743,13.153c1.077,0.961,2.743,0.865,3.704-0.211l0,0
						c0.961-1.077,0.866-2.743-0.211-3.704l-14.743-13.153c-1.077-0.961-2.743-0.866-3.704,0.211v0
						C165.402,525.628,165.497,527.295,166.574,528.255z"/>
				</g>
				<g>
					<path style="fill:#FFC7B0;" d="M165.588,535.69l11.837,10.561c1.077,0.961,2.743,0.866,3.704-0.211l0,0
						c0.961-1.077,0.865-2.743-0.211-3.704l-11.837-10.561c-1.077-0.961-2.743-0.865-3.704,0.211l0,0
						C164.416,533.063,164.511,534.729,165.588,535.69z"/>
				</g>
				<g>
					<path style="fill:#FFC7B0;" d="M155.773,535.226l14.011,12.5c1.077,0.961,2.743,0.866,3.704-0.211l0,0
						c0.96-1.077,0.865-2.743-0.211-3.704l-14.011-12.5c-1.077-0.961-2.743-0.866-3.704,0.211l0,0
						C154.601,532.599,154.696,534.265,155.773,535.226z"/>
				</g>
			</g>
			<g>
				<polygon style="fill:#FFFFFF;" points="163.529,512.686 161.632,510.994 157.418,507.246 145.357,520.767 142.834,523.604 
					143.644,524.325 145.417,525.916 148.936,529.05 149.608,528.294 158.107,518.761 161.549,514.907 161.799,514.631 				"/>
			</g>
			<g>
				<path style="fill:#25253A;" d="M160.063,388.258l-9.389-11.25l-1.574-1.337c-0.197,0.232-2.879,3.411-6.663,8.596
					c-3.229,4.43-7.273,10.332-11.266,17.127c-12.223,20.805-17.941,39.436-17.007,55.388c1.94,33.155,26.941,67.21,28.004,68.644
					l1.477-1.101l2.72-2.014l11.198-8.302l1.576-1.158l2.493-1.857l1.694-1.251c-0.201-0.28-21.381-29.252-22.863-54.505
					c-1.126-19.245,7.947-39.315,17.714-52.124C159.571,401.296,159.009,389.498,160.063,388.258z"/>
			</g>
		</g>
	</g>
	<path style="fill:#FFFFFF;" d="M198.376,538.44c0,1.946-1.49,3.524-3.329,3.524s-3.329-1.578-3.329-3.524
		c0-1.946,1.49-3.524,3.329-3.524S198.376,536.493,198.376,538.44z"/>
</g>
</svg>
