<?xml version="1.0" encoding="utf-8"?>
<!-- Generator: Adobe Illustrator 27.5.0, SVG Export Plug-In . SVG Version: 6.00 Build 0)  -->
<svg version="1.1" xmlns="http://www.w3.org/2000/svg" xmlns:xlink="http://www.w3.org/1999/xlink" x="0px" y="0px"
	 viewBox="0 0 1122 1122" style="enable-background:new 0 0 1122 1122;" xml:space="preserve">
<g id="Bg">
	<rect style="fill:#FFFFFF;" width="1122" height="1122"/>
</g>
<g id="Shadow">
	<path style="opacity:0.5;fill:#B3B3B3;" d="M1010.169,609.506c-64.827-37.428-169.585-37.433-233.992-0.004
		c-50.61,29.412-61.227,73.185-32.003,108.747L503.857,855.044l-0.15,45.254l34.932,20.002l64.688-40.888l-0.058-6.025
		l25.797-14.991l29.879,1.059l10.469-6.084l-0.155-27.487l47.453,0l14.448-8.396L731,789.045l13.22-7.682l49.094,0.004
		l29.994-17.431c61.496,16.806,137.015,10.513,187.625-18.898C1075.339,707.61,1074.99,646.93,1010.169,609.506z M965.152,665.133
		c-13.952,8.108-36.658,8.108-50.702,0c-14.043-8.108-14.116-21.259-0.164-29.368c13.953-8.108,36.658-8.109,50.701-0.001
		C979.031,643.872,979.105,657.024,965.152,665.133z"/>
</g>
<g id="Object">
	<g>
		<g>
			<path style="fill:#B7830F;" d="M580.576,352.242c-4.967,8.964-15.49,11.046-27.647,4.026
				c-16.893-9.75-30.548-33.402-30.486-52.811c0.015-7.267,1.944-12.898,5.23-16.6l0.078-0.078c0.802-0.741,1.697-1.404,2.7-1.99
				c0.015,0,1.666-0.972,3.934-2.283c1.836-0.586,3.826-0.817,5.971-0.71c-6.943,12.312,0.386,33.125,6.372,43.43
				c4.119,7.097,12.219,17.126,21.445,22.757C572.168,350.437,576.38,352.056,580.576,352.242z"/>
			<g>
				<polygon style="fill:#D69C0B;" points="598.331,870.219 614.642,860.74 614.571,885.812 598.26,895.29 				"/>
			</g>
			<g>
				<polygon style="fill:#B7830F;" points="580.068,838.587 596.379,829.108 614.642,860.74 598.331,870.219 				"/>
			</g>
			<g>
				<polygon style="fill:#D69C0B;" points="580.17,802.695 596.481,795.551 596.379,829.108 580.068,838.587 				"/>
			</g>
			<g>
				<polygon style="fill:#D69C0B;" points="599.406,779.733 615.717,770.254 615.676,784.821 599.365,794.299 				"/>
			</g>
			<g>
				<polygon style="fill:#B7830F;" points="570.865,730.296 587.175,720.817 615.717,770.254 599.406,779.733 				"/>
			</g>
			<g>
				<polygon style="fill:#D69C0B;" points="599.65,693.823 615.961,684.344 615.904,704.446 599.593,713.924 				"/>
			</g>
			<g>
				<polygon style="fill:#B7830F;" points="570.116,642.668 586.427,633.189 615.961,684.344 599.65,693.823 				"/>
			</g>
			<g>
				<polygon style="fill:#D69C0B;" points="570.168,624.275 586.479,614.796 586.427,633.189 570.116,642.668 				"/>
			</g>
			<g>
				<polygon style="fill:#B7830F;" points="598.26,895.29 614.571,885.812 567.613,918.278 551.302,927.757 				"/>
			</g>
			<g>
				<polygon style="fill:#D69C0B;" points="600.013,565.614 616.324,556.135 616.206,597.867 599.895,607.346 				"/>
			</g>
			<path style="fill:#D69C0B;" d="M553.239,247.894c-65.959-38.081-119.798-7.411-120.013,68.38
				c-0.216,75.791,53.275,168.429,119.234,206.51c65.948,38.076,119.788,7.405,120.003-68.386
				C672.677,378.607,619.187,285.969,553.239,247.894z M552.485,513.978c-61.733-35.642-111.797-122.344-111.596-193.28
				c0.201-70.935,50.592-99.652,112.325-64.01C614.946,292.329,665,379.038,664.799,449.973
				C664.598,520.909,614.217,549.619,552.485,513.978z"/>
			<path style="fill:#F0C3D3;" d="M553.206,256.694c-61.729-35.654-112.117-6.927-112.318,63.996
				c-0.2,70.939,49.865,157.646,111.593,193.286c61.744,35.639,112.117,6.927,112.318-63.996
				C665,379.041,614.95,292.334,553.206,256.694z M527.75,286.78c1.836-2.036,4.073-3.471,6.634-4.274
				c1.836-0.586,3.826-0.817,5.971-0.71c3.888,0.185,8.223,1.528,12.774,4.15c16.894,9.766,30.548,33.418,30.502,52.827
				c-0.015,5.446-1.11,9.982-3.055,13.469c-4.967,8.964-15.49,11.046-27.647,4.026c-16.893-9.75-30.548-33.402-30.486-52.811
				c0.015-7.267,1.944-12.898,5.23-16.6L527.75,286.78z"/>
			<path style="fill:#F4C430;" d="M553.3,223.089c-77.976-45.019-141.402-8.886-141.656,80.725
				c-0.2,70.415,38.677,152.892,93.176,206.84l-0.649,228.685l-0.193,67.914l-0.264,93.041l15.385,8.876l1.091-384.586l15.82,9.134
				l-1.09,384.593l16.382,9.447l46.958-32.467l0.071-25.071l-18.262-31.633l0.102-35.892l19.195-8.396l0.041-14.566l-28.542-49.437
				l28.728-16.372l0.057-20.102l-29.534-51.155l0.053-18.393l29.727-16.929l0.118-41.732c54.625,9.044,93.833-28.34,94.032-98.756
				C694.3,377.247,631.285,268.113,553.3,223.089z M552.459,522.784c-65.958-38.081-119.448-130.718-119.233-206.51
				c0.215-75.79,54.055-106.461,120.013-68.38c65.948,38.075,119.439,130.714,119.225,206.504
				C672.248,530.19,618.408,560.859,552.459,522.784z"/>
			<g>
				<polygon style="fill:#EAB82A;" points="536.01,533.717 534.92,918.31 519.1,909.176 520.19,524.583 				"/>
			</g>
			<polygon style="fill:#D69C0B;" points="523.833,906.784 523.833,526.224 520.19,524.583 519.1,909.17 			"/>
			<polygon style="fill:#B7830F;" points="523.833,906.784 534.92,912.838 534.92,918.31 519.1,909.17 			"/>
			<g>
				<path style="fill:#D69C0B;" d="M704.864,408.66c-9.445-43.18-30.471-87.372-58.381-124.444
					c-22.089-29.339-48.488-54.218-76.872-70.605c-39.24-22.655-74.795-24.759-100.47-9.839l-16.31,9.479
					c25.674-14.921,61.229-12.816,100.469,9.839c28.383,16.387,54.784,41.266,76.872,70.605
					c27.909,37.072,48.936,81.264,58.381,124.444c3.618,16.541,5.537,32.933,5.492,48.719
					c-0.126,44.515-15.841,75.829-41.185,90.557l16.31-9.478c25.344-14.728,41.06-46.042,41.186-90.557
					C710.401,441.593,708.482,425.201,704.864,408.66z"/>
			</g>
			<path style="fill:#F4C430;" d="M553.206,256.694c-61.729-35.654-112.117-6.927-112.318,63.996
				c-0.2,70.939,49.865,157.646,111.593,193.286c61.744,35.639,112.117,6.927,112.318-63.996
				C665,379.041,614.95,292.334,553.206,256.694z M527.75,286.78c1.836-2.036,4.073-3.471,6.634-4.274
				c1.836-0.586,3.826-0.817,5.971-0.71c3.888,0.185,8.223,1.528,12.774,4.15c16.894,9.766,30.548,33.418,30.502,52.827
				c-0.015,5.446-1.11,9.982-3.055,13.469c-4.967,8.964-15.49,11.046-27.647,4.026c-16.893-9.75-30.548-33.402-30.486-52.811
				c0.015-7.267,1.944-12.898,5.23-16.6L527.75,286.78z"/>
		</g>
	</g>
</g>
</svg>
