<?xml version="1.0" encoding="UTF-8"?>
<svg xmlns="http://www.w3.org/2000/svg" xmlns:xlink="http://www.w3.org/1999/xlink" viewBox="0 0 378.3 330.75">
  <defs>
    <style>
      .cls-1 {
        letter-spacing: 0em;
      }

      .cls-1, .cls-2 {
        fill: #5a6a90;
        font-family: Aileron-Bold, 'Aileron Bold';
        font-weight: 700;
      }

      .cls-3 {
        fill: url(#linear-gradient-2);
      }

      .cls-4, .cls-5, .cls-6, .cls-7 {
        fill: #fff;
      }

      .cls-8 {
        fill: #fe746a;
      }

      .cls-9 {
        fill: #a1c2ff;
      }

      .cls-10 {
        fill: url(#linear-gradient-6);
      }

      .cls-11 {
        isolation: isolate;
      }

      .cls-5, .cls-12, .cls-13, .cls-7 {
        font-weight: 600;
      }

      .cls-5, .cls-13 {
        font-family: Montserrat-SemiBold, 'Montserrat SemiBold';
        font-size: 8.66px;
      }

      .cls-14 {
        letter-spacing: -.08em;
      }

      .cls-15, .cls-6 {
        opacity: .08;
      }

      .cls-16 {
        fill: url(#linear-gradient-11);
      }

      .cls-17 {
        letter-spacing: 0em;
      }

      .cls-18 {
        opacity: .31;
      }

      .cls-18, .cls-19 {
        fill: #323197;
      }

      .cls-18, .cls-20 {
        mix-blend-mode: multiply;
      }

      .cls-12, .cls-13 {
        fill: #93a5c9;
      }

      .cls-12, .cls-7 {
        font-family: Aileron-SemiBold, 'Aileron SemiBold';
      }

      .cls-21 {
        fill: url(#linear-gradient-10);
      }

      .cls-22 {
        fill: #e7e8fa;
      }

      .cls-23 {
        fill: #ff8d02;
      }

      .cls-24 {
        opacity: .44;
        stroke-miterlimit: 10;
      }

      .cls-24, .cls-25 {
        stroke: #fff;
      }

      .cls-24, .cls-25, .cls-26 {
        fill: none;
      }

      .cls-27 {
        fill: url(#linear-gradient-5);
      }

      .cls-2 {
        letter-spacing: -.01em;
      }

      .cls-25 {
        stroke-linecap: round;
        stroke-linejoin: round;
        stroke-width: 2px;
      }

      .cls-28 {
        clip-path: url(#clippath);
      }

      .cls-29 {
        fill: url(#linear-gradient-7);
      }

      .cls-30 {
        fill: url(#linear-gradient-9);
      }

      .cls-31 {
        fill: url(#linear-gradient-3);
      }

      .cls-32 {
        fill: #ff7d5a;
      }

      .cls-33 {
        fill: url(#linear-gradient);
      }

      .cls-7 {
        font-size: 10.29px;
      }

      .cls-34 {
        fill: url(#linear-gradient-4);
      }

      .cls-35 {
        font-size: 11px;
      }

      .cls-20 {
        fill: #ffa26e;
        opacity: .32;
      }

      .cls-36 {
        fill: url(#linear-gradient-8);
      }

      .cls-37 {
        fill: url(#linear-gradient-12);
      }
    </style>
    <linearGradient id="linear-gradient" x1="-25.4" y1="140.94" x2="124.98" y2="140.94" gradientTransform="translate(60.01 135.73) rotate(14.64)" gradientUnits="userSpaceOnUse">
      <stop offset="0" stop-color="#6060e7"/>
      <stop offset="1" stop-color="#8182ee"/>
    </linearGradient>
    <linearGradient id="linear-gradient-2" x1="146.77" y1="351.96" x2="241.39" y2="-101.71" gradientTransform="matrix(1,0,0,1,0,0)" xlink:href="#linear-gradient"/>
    <linearGradient id="linear-gradient-3" x1="133.96" y1="254.02" x2="149.33" y2="254.02" gradientUnits="userSpaceOnUse">
      <stop offset="0" stop-color="#ff8d02"/>
      <stop offset="1" stop-color="#ffc757"/>
    </linearGradient>
    <linearGradient id="linear-gradient-4" x1="217.82" y1="242.61" x2="315.67" y2="242.61" xlink:href="#linear-gradient-3"/>
    <linearGradient id="linear-gradient-5" x1="239.65" y1="242.6" x2="293.83" y2="242.6" gradientUnits="userSpaceOnUse">
      <stop offset="0" stop-color="#d5e0f5"/>
      <stop offset="1" stop-color="#fff"/>
    </linearGradient>
    <linearGradient id="linear-gradient-6" x1="215.59" y1="188.58" x2="271.39" y2="87.49" gradientUnits="userSpaceOnUse">
      <stop offset="0" stop-color="#d8e2f6"/>
      <stop offset="0" stop-color="#d9e3f6"/>
      <stop offset=".12" stop-color="#eaeffa"/>
      <stop offset=".26" stop-color="#f6f8fd"/>
      <stop offset=".46" stop-color="#fdfdfe"/>
      <stop offset="1" stop-color="#fff"/>
    </linearGradient>
    <clipPath id="clippath">
      <circle class="cls-26" cx="118.19" cy="123.32" r="46.7"/>
    </clipPath>
    <linearGradient id="linear-gradient-7" x1="-957.54" y1="138.49" x2="-965.75" y2="123.34" gradientTransform="translate(-848.01) rotate(-180) scale(1 -1)" gradientUnits="userSpaceOnUse">
      <stop offset="0" stop-color="#ffb58e"/>
      <stop offset=".33" stop-color="#feb38a"/>
      <stop offset=".59" stop-color="#fcac80"/>
      <stop offset=".83" stop-color="#f8a270"/>
      <stop offset="1" stop-color="#f5985f"/>
    </linearGradient>
    <linearGradient id="linear-gradient-8" x1="-972.19" y1="99.57" x2="-966.61" y2="128.3" xlink:href="#linear-gradient-7"/>
    <linearGradient id="linear-gradient-9" x1="-969.33" y1="90.96" x2="-952.62" y2="113.12" gradientTransform="translate(-848.01) rotate(-180) scale(1 -1)" gradientUnits="userSpaceOnUse">
      <stop offset="0" stop-color="#b62c01"/>
      <stop offset="1" stop-color="#7c0c0a"/>
    </linearGradient>
    <linearGradient id="linear-gradient-10" x1="-957.95" y1="100.84" x2="-953.62" y2="123.14" xlink:href="#linear-gradient-7"/>
    <linearGradient id="linear-gradient-11" x1="78" y1="234.83" x2="135.19" y2="162.13" gradientUnits="userSpaceOnUse">
      <stop offset="0" stop-color="#1196c3"/>
      <stop offset="1" stop-color="#02b2ca"/>
    </linearGradient>
    <linearGradient id="linear-gradient-12" x1="144.07" y1="98.25" x2="170.76" y2="98.25" xlink:href="#linear-gradient-3"/>
  </defs>
  <g class="cls-11">
    <g id="Layer_2" data-name="Layer 2">
      <g id="OBJECTS">
        <g>
          <path class="cls-22" d="m378.21,263.76c-.02-.31-.03-.62-.05-.94-12.13-112.81-111.6-99.47-181.95-190.45C125.85-18.6,61.56,22.64,61.56,22.64c-75.21,54.59-23.05,117.66-24.26,147.99-1.21,30.33-40.03,67.93-23.05,132.22.03.11.06.22.09.34,4.19,15.74,18.2,26.78,34.34,27.52h143.87v.04h122c36.48,0,65.6-30.56,63.66-66.99Z"/>
          <path class="cls-9" d="m266.08,316.07c-4.92,1.36-19.36-6.92-22.88-7.02-3.65,2-4.05,11.49-4.75,14.53s31.35-2.05,29.07,1.69c-2.28,3.74-23.16.37-25.07,1-.99.32-1.11,2.25-.43,4.27h36.96c2.63-2.28,4.5-4.62,5.65-6.27-1.35,2.25-2.39,4.33-3.19,6.27h7.79c.52-1.19,1.22-2.03,1.78-2.38.47-.3,1.28.76,2.44,2.38h34.73c2.25-2.25,3.59-4.14,3.49-4.78-.29-1.84-18.54.37-21.86-2.17-3.32-2.54-3.2-4.64,1.05-6.15,4.25-1.51,19.33,5.49,24.04,1.96,4.71-3.53,8.75-11.84,8.27-14.43-.47-2.59-10.31,4.74-19.52,6.18-9.2,1.44-15.53-.36-14.09-3.58,1.45-3.22,22.53-2.29,28.75-6.19,6.22-3.9,7.08-15.42,6.04-17.07-1.04-1.66-24.07,13.65-29.2,12.83-5.14-.82-2.19-4.4,3.67-5.19,5.86-.79,20.76-6.96,22.1-11.26,1.34-4.31-.77-13.66-2.61-13.38-1.84.29-5.72,7.92-9.83,11.94-4.12,4.03-9.27,6.39-10.21,1.21-.94-5.18,14.92-9.36,17.3-12.01,2.38-2.65-.51-13.25-1.89-14.99-1.38-1.74-22.62-6.6-26.35-4.26-4.17,5.79-4.92,23.01-3.1,25.91,1.82,2.9.77,9.05-3.67,5.19-4.21-4.87,1.23-27.05,1.12-28.14-.11-1.09-4.31-1.34-8.53,1.6-4.22,2.94-2.98,19.19-.95,24.27,2.03,5.08,4.13,17.63-4.24,10.74-8.36-6.88-3.42-28.47-6.22-30.17-2.8-1.71-8.81,4.37-11.11,6.68-2.3,2.31-1.93,8.43.77,13.66,2.71,5.23,15.28,16.99,9.18,18.79-6.09,1.8-14.28-25.99-16.56-26.86-2.28-.88-7.75,2.84-9.97,9.43-2.14,6.25,20.73,21.07,17.62,25.33-9.2,1.44-16.39-18.31-20.1-19.16-3.71-.85-7.1,6.18-8.85,10.75-1.76,4.57.56,6.87,7.02,11.19,6.46,4.32,19.9,4.56,16.35,7.65Zm27.08-12.9c-.69,4.59-5.25.62-5.25.62.42-5.02,5.94-5.21,5.25-.62Zm-12.69,4.4c5.12-3.21,5.53,4.55,2.26,9.28-3.27,4.73-7.65,1.53-7.65,1.53-3.34-2.96.28-7.6,5.4-10.81Z"/>
          <path class="cls-33" d="m36.77,282.04c4.13-2.42,12.66-.69,7.09,5.35-6.97,5.67-37.7-2.86-39.23-2.75-1.52.1-2.05,5.96,1.87,11.97,3.92,6.02,26.67,4.97,33.84,2.35,7.18-2.62,24.78-5.01,14.82,6.37-9.96,11.38-39.88,3.57-42.38,7.41-2.5,3.84,5.73,12.48,8.86,15.8,1.12,1.18,2.94,1.9,5.14,2.19h4.65c2.99-.32,6.25-1.22,9.31-2.69,7.42-3.56,24.36-20.6,26.61-12.03,1.29,4.9-10.95,10.36-21.92,14.72h26.08c2.8-2.05,5.1-3.03,6.49-1.95.08.66.07,1.31,0,1.95h41.65c-3.94-9.9-11.04-16.25-15.09-19.24,24.05,15.41,35.11,5.16,38.54-.66,3.58-6.06.57-21.32-2.92-23.23-3.5-1.91-3.97,9.45-12.59,15.69-8.62,6.24-15.96,1.83-17.34-.53-1.38-2.36,20.49-9.63,19.01-25s-18.06-32.18-20.64-31.86c-2.58.32-.27,25.9-3.95,30.43-3.68,4.53-6.61,4.27-8.54-1.73-1.93-6,8.48-26.75,3.75-33.48-4.73-6.73-16.16-12.71-19.79-12.16-3.64.55,6.18,14.6,7.8,27.5,1.62,12.91-1.16,21.67-5.59,19.51-4.43-2.16-2.25-31.55-7.43-40.39-5.18-8.84-21.22-10.53-23.58-9.15-2.36,1.38,18.04,34.17,16.68,41.31-1.36,7.13-6.24,2.86-7.09-5.35-.85-8.21-8.84-29.27-14.79-31.33-5.96-2.05-19.11.5-18.78,3.08.32,2.58,10.81,8.32,16.26,14.23,5.45,5.92,8.53,13.21,1.26,14.31-7.28,1.1-12.43-21.22-16.03-24.66-3.6-3.44-18.52.16-21,2.01-2.48,1.85-10.17,31.3-7.06,36.61,7.91,6.06,31.91,7.83,36.04,5.42Zm57.34,31.75c6.46,4.77,1.82,10.75,1.82,10.75-4.27,4.54-10.6-.71-14.87-7.99-4.26-7.28,6.59-7.53,13.05-2.76Zm-18.65-15.15c6.38,1.15.65,7.36.65,7.36-6.98-.8-7.02-8.51-.65-7.36Z"/>
          <g>
            <path class="cls-4" d="m249.98,0H121.4c-12.04,0-21.83,9.79-21.83,21.83v287.08c0,11.6,9.1,21.11,20.53,21.79h72.46v.04h57.42c12.04,0,21.83-9.8,21.83-21.83V21.83c0-12.04-9.8-21.83-21.83-21.83Z"/>
            <path class="cls-3" d="m249.98,4.85h-20.91l-3.81,6.73c-2,3.54-5.75,5.73-9.82,5.73h-59.51c-4.07,0-7.82-2.19-9.82-5.73l-3.81-6.73h-20.91c-9.38,0-16.98,7.6-16.98,16.98v287.08c0,9.38,7.6,16.98,16.98,16.98h128.58c9.38,0,16.98-7.6,16.98-16.98V21.83c0-9.38-7.6-16.98-16.98-16.98Z"/>
            <path class="cls-22" d="m205.94,10.92h-40.03c-.89,0-1.62-.72-1.62-1.62h0c0-.89.72-1.62,1.62-1.62h40.03c.89,0,1.62.72,1.62,1.62h0c0,.89-.72,1.62-1.62,1.62Z"/>
            <g>
              <rect class="cls-4" x="81.2" y="184.58" width="72.78" height="16.98" rx="5.66" ry="5.66"/>
              <rect class="cls-4" x="81.2" y="209.45" width="72.78" height="60.04" rx="6.37" ry="6.37"/>
              <path class="cls-9" d="m128.35,195.2h-38.21c-.92,0-1.67-.75-1.67-1.67h0c0-.92.75-1.67,1.67-1.67h38.21c.92,0,1.67.75,1.67,1.67h0c0,.92-.75,1.67-1.67,1.67Z"/>
              <path class="cls-9" d="m128.35,225.52h-38.21c-.92,0-1.67-.75-1.67-1.67h0c0-.92.75-1.67,1.67-1.67h38.21c.92,0,1.67.75,1.67,1.67h0c0,.92-.75,1.67-1.67,1.67Z"/>
              <path class="cls-9" d="m128.35,242.2h-38.21c-.92,0-1.67-.75-1.67-1.67h0c0-.92.75-1.67,1.67-1.67h38.21c.92,0,1.67.75,1.67,1.67h0c0,.92-.75,1.67-1.67,1.67Z"/>
              <path class="cls-9" d="m128.35,258.88h-38.21c-.92,0-1.67-.75-1.67-1.67h0c0-.92.75-1.67,1.67-1.67h38.21c.92,0,1.67.75,1.67,1.67h0c0,.92-.75,1.67-1.67,1.67Z"/>
              <path class="cls-9" d="m144.27,233.71h-54.13c-.92,0-1.67-.75-1.67-1.67h0c0-.92.75-1.67,1.67-1.67h54.13c.92,0,1.67.75,1.67,1.67h0c0,.92-.75,1.67-1.67,1.67Z"/>
              <path class="cls-9" d="m145.94,195.2h-10.01c-.92,0-1.67-.75-1.67-1.67h0c0-.92.75-1.67,1.67-1.67h10.01c.92,0,1.67.75,1.67,1.67h0c0,.92-.75,1.67-1.67,1.67Z"/>
              <path class="cls-31" d="m141.41,259.21l-3.96,2.08c-.37.2-.81-.12-.74-.54l.76-4.41c.03-.16-.03-.33-.15-.45l-3.2-3.12c-.3-.29-.14-.81.28-.87l4.43-.64c.17-.02.31-.13.38-.28l1.98-4.01c.19-.38.72-.38.91,0l1.98,4.01c.07.15.22.25.38.28l4.43.64c.42.06.58.57.28.87l-3.2,3.12c-.12.12-.17.28-.15.45l.76,4.41c.07.42-.36.73-.74.54l-3.96-2.08c-.15-.08-.32-.08-.47,0Z"/>
            </g>
            <path class="cls-6" d="m182.49,40.84h59.84c6.25,0,11.32,5.07,11.32,11.32v177.1c0,6.25-5.07,11.32-11.32,11.32h-59.84c-6.25,0-11.32-5.07-11.32-11.32V52.16c0-6.25,5.07-11.32,11.32-11.32Z"/>
            <g>
              <circle class="cls-19" cx="266.74" cy="242.6" r="39.22" transform="translate(-93.42 259.67) rotate(-45)"/>
              <path class="cls-34" d="m266.94,193.68v49.12h-49.12c.11,26.93,21.97,48.72,48.92,48.72s48.93-21.9,48.93-48.93-21.8-48.81-48.72-48.92Z"/>
              <circle class="cls-27" cx="266.74" cy="242.6" r="27.09"/>
              <circle class="cls-9" cx="266.74" cy="242.6" r="18.45"/>
              <text class="cls-7" transform="translate(257.01 246.94)"><tspan x="0" y="0">75%</tspan></text>
            </g>
            <g>
              <path class="cls-18" d="m271.81,73.19h-67.9c-4.24,0-7.68,3.44-7.68,7.68v99.06c0,4.24,3.44,7.68,7.68,7.68h67.9v-114.43Z"/>
              <rect class="cls-10" x="202.9" y="65.71" width="97.85" height="114.43" rx="7.68" ry="7.68"/>
              <path class="cls-9" d="m251.02,86.33v-20.62h-40.43c-4.24,0-7.68,3.44-7.68,7.68v12.94h48.12Z"/>
              <text class="cls-5" transform="translate(218.87 80.36)"><tspan x="0" y="0">APR</tspan></text>
              <text class="cls-13" transform="translate(263.35 80.36)"><tspan class="cls-17" x="0" y="0">M</tspan><tspan class="cls-14" x="6.87" y="0">A</tspan><tspan x="11.49" y="0">Y</tspan></text>
              <g>
                <rect class="cls-9" x="211.75" y="97.85" width="15.16" height="15.16" rx="2.27" ry="2.27"/>
                <rect class="cls-9" x="233.28" y="97.85" width="15.16" height="15.16" rx="2.27" ry="2.27"/>
                <rect class="cls-9" x="254.81" y="97.85" width="15.16" height="15.16" rx="2.27" ry="2.27"/>
                <rect class="cls-9" x="276.34" y="97.85" width="15.16" height="15.16" rx="2.27" ry="2.27"/>
              </g>
              <g>
                <rect class="cls-9" x="211.75" y="121.5" width="15.16" height="15.16" rx="2.27" ry="2.27"/>
                <rect class="cls-9" x="233.28" y="121.5" width="15.16" height="15.16" rx="2.27" ry="2.27"/>
                <rect class="cls-23" x="254.81" y="121.5" width="15.16" height="15.16" rx="2.27" ry="2.27"/>
                <rect class="cls-9" x="276.34" y="121.5" width="15.16" height="15.16" rx="2.27" ry="2.27"/>
              </g>
              <g>
                <rect class="cls-9" x="211.75" y="145.16" width="15.16" height="15.16" rx="2.27" ry="2.27"/>
                <rect class="cls-9" x="233.28" y="145.16" width="15.16" height="15.16" rx="2.27" ry="2.27"/>
                <rect class="cls-9" x="254.81" y="145.16" width="15.16" height="15.16" rx="2.27" ry="2.27"/>
                <rect class="cls-9" x="276.34" y="145.16" width="15.16" height="15.16" rx="2.27" ry="2.27"/>
              </g>
            </g>
            <g class="cls-15">
              <rect class="cls-4" x="113.95" y="42.05" width="47.91" height="12.13" rx="3.34" ry="3.34"/>
              <rect class="cls-4" x="113.95" y="60.25" width="47.91" height="12.13" rx="3.34" ry="3.34"/>
            </g>
            <path class="cls-18" d="m118.19,67.93c-6.54,0-12.81,1.14-18.63,3.22v104.35c5.82,2.08,12.09,3.22,18.63,3.22,30.59,0,55.39-24.8,55.39-55.39s-24.8-55.39-55.39-55.39Z"/>
            <g>
              <circle class="cls-9" cx="118.19" cy="123.32" r="51.76"/>
              <g>
                <g>
                  <circle class="cls-4" cx="118.19" cy="123.32" r="46.7"/>
                  <g class="cls-28">
                    <g>
                      <g>
                        <g>
                          <path class="cls-29" d="m124.68,122.7s-3.79,10.1-1.26,16.73c.95,6.31-17.04,1.58-19.88-6.31.95-5.05,4.42-8.52,4.73-18.62.32-10.1,16.73,1.58,16.41,8.21Z"/>
                          <path class="cls-20" d="m107.31,121.95c.3-1.21.55-2.55.72-4.06l10.03-4.67c3.59,2.59,6.76,6.53,6.62,9.48,0,0-1.75,4.67-2.08,9.73-9.32-1.89-13.51-7.08-15.3-10.48Z"/>
                        </g>
                        <g>
                          <path class="cls-36" d="m132.33,107.14s4.43,12.49.15,17.54c-6.69,7.88-17.09,3.57-21.25-1.19-4.16-4.76-4.01-24.52,2.97-27.64,6.99-3.12,15.16-.89,18.13,11.3Z"/>
                          <path class="cls-20" d="m109.72,102.23c.13-.41.26-.81.41-1.2l3.78-4.02,11.8-.72c1.69,1.1,3.23,2.75,4.47,5.04-2.64.96-7.45,2.41-11.37,1.94-3.95-.41-3.4,0-3.4,0,0,0,1.63,3.68-.54,7.49-2.18,3.81-4.36,5.72-3.27,8.85-.95-1.78-1.69-14.24-1.87-17.39Z"/>
                          <path class="cls-30" d="m113.17,101.92s2.5,3.95-1.32,11.03c0,0-1.23,3.4.05,6.58.18,1.63-3.45-1.72-3.99-3.18-.54-1.09-3.9.45-4.95-1-1.04-1.45.77-3.09.77-3.09,0,0-4.9-5.08-4.36-9.26.54-4.18,5.45-3.81,5.45-3.81,0,0-2.72-1.27-3.45-2.72-.54-1.27,3.63,1.09,3.99,2,0,0-.36-1.45.73-2.72.73-.91.18,2.72.18,2.72,0,0,.73-2.18,3.09-4.9,2.36-2.72,6.53-.91,9.8-2.9,3.27-2,2.72-5.81,4.9-5.99,2.18-.18,6.85,3.36,5.9,9.89,0,0,.82-2.59.54-6.26.82-.41,3,5.72-.82,8.58,0,0,2.18-.54,3.4-3.68.95-2.18,2.31,4.9-5.31,7.22-7.62,2.31-12.34-.14-14.61,1.5Z"/>
                        </g>
                        <path class="cls-8" d="m114.05,118.31c0,2.17,1.76,3.92,3.92,3.92s3.92-1.76,3.92-3.92-1.76-3.92-3.92-3.92-3.92,1.76-3.92,3.92Z"/>
                        <g>
                          <path class="cls-21" d="m108.93,117.44s-3.42-4.88-5.42-2.18c-2.03,2.73,6.18,7.56,6.4,5.3.18-1.89-.97-3.11-.97-3.11Z"/>
                          <path class="cls-32" d="m108.11,119.21s-1.7-3.13-3.88-3.13c-.61-.54,1.16-.34,2.11.41.95.75,2.45,2.11,1.77,2.72Z"/>
                          <path class="cls-32" d="m108.18,118.66s-2.04-2-3.09-1.32c-.5.82,3.54,2.81,3.09,1.32Z"/>
                        </g>
                      </g>
                      <path class="cls-16" d="m141.56,233.31c-.62-4.28-1.81-63.56-1.81-71.58,0-8.82-3.6-14.22-3.6-14.22-1.98-3.42-8.1-6.66-10.08-7.92-1.98-1.26-3.24-2.7-3.24-2.7,0,0,.36,2.16-2.34,4.14-9.9,1.08-16.38-9.36-16.38-9.36,0,0-15.3,6.84-17.99,14.4-5,14.36-6.1,82.2-6.27,87.23h61.71Z"/>
                    </g>
                  </g>
                </g>
                <g>
                  <circle class="cls-37" cx="157.42" cy="98.25" r="13.34"/>
                  <polyline class="cls-25" points="152.16 98.46 156.4 102.7 164.44 94.67"/>
                </g>
              </g>
            </g>
            <g>
              <path class="cls-18" d="m169.14,283.44h-69.58v22.44h69.58c2.01,0,3.64-1.63,3.64-3.64v-15.16c0-2.01-1.63-3.64-3.64-3.64Z"/>
              <g>
                <rect class="cls-4" x="80.59" y="279.2" width="87.94" height="22.44" rx="3.64" ry="3.64"/>
                <g>
                  <g>
                    <path class="cls-9" d="m96.26,298.71c-4.29,0-7.78-3.49-7.78-7.78s3.49-7.78,7.78-7.78,7.78,3.49,7.78,7.78-3.49,7.78-7.78,7.78Zm0-13.14c-2.95,0-5.36,2.4-5.36,5.36s2.4,5.36,5.36,5.36,5.36-2.4,5.36-5.36-2.4-5.36-5.36-5.36Z"/>
                    <path class="cls-9" d="m97.88,292.09h-1.97c-.34,0-.61-.27-.61-.61v-3.94c0-.34.27-.61.61-.61s.61.27.61.61v3.34h1.36c.34,0,.61.27.61.61s-.27.61-.61.61Z"/>
                  </g>
                  <text class="cls-35" transform="translate(109.55 295.65)"><tspan class="cls-12" x="0" y="0">03:00 </tspan><tspan class="cls-2" x="27.19" y="0">P</tspan><tspan class="cls-1" x="32.91" y="0">M</tspan></text>
                </g>
              </g>
              <path class="cls-4" d="m174.3,276.47c0,1.34-1.09,2.43-2.43,2.43s-2.43-1.09-2.43-2.43,1.09-2.43,2.43-2.43,2.43,1.09,2.43,2.43Z"/>
            </g>
            <g>
              <rect class="cls-24" x="189.76" y="196.11" width="50.95" height="6.67" rx="3.34" ry="3.34"/>
              <path class="cls-24" d="m206.44,213.39h-13.34c-1.84,0-3.34-1.49-3.34-3.34h0c0-1.84,1.49-3.34,3.34-3.34h13.34c1.84,0,3.34,1.49,3.34,3.34h0c0,1.84-1.49,3.34-3.34,3.34Z"/>
            </g>
            <path class="cls-9" d="m83.42,76.42c0,1.79-1.45,3.23-3.23,3.23s-3.23-1.45-3.23-3.23,1.45-3.23,3.23-3.23,3.23,1.45,3.23,3.23Z"/>
          </g>
        </g>
      </g>
    </g>
  </g>
</svg>