<?xml version="1.0" encoding="utf-8"?>
<!-- Generator: Adobe Illustrator 27.5.0, SVG Export Plug-In . SVG Version: 6.00 Build 0)  -->
<svg version="1.1" id="_x31_" xmlns="http://www.w3.org/2000/svg" xmlns:xlink="http://www.w3.org/1999/xlink" x="0px" y="0px"
	 viewBox="0 0 450 450" style="enable-background:new 0 0 450 450;" xml:space="preserve">
<g>
	<g id="background_4_">
		<g>
			<defs>
				
					<ellipse id="SVGID_1_" transform="matrix(0.7071 -0.7071 0.7071 0.7071 -93.9287 228.5271)" cx="228.892" cy="227.646" rx="141.796" ry="141.796"/>
			</defs>
			<use xlink:href="#SVGID_1_"  style="overflow:visible;fill:#FCD9D9;"/>
			<clipPath id="SVGID_00000083803480282570093160000017662625133275711380_">
				<use xlink:href="#SVGID_1_"  style="overflow:visible;"/>
			</clipPath>
			<path style="clip-path:url(#SVGID_00000083803480282570093160000017662625133275711380_);fill:#EA9292;" d="M286.792,388.977
				H164.739c-1.332,0-2.411-1.08-2.411-2.411V146.732c0-1.332,1.08-2.411,2.411-2.411h122.054c1.332,0,2.411,1.08,2.411,2.411
				v239.833C289.204,387.897,288.124,388.977,286.792,388.977z"/>
			<g style="clip-path:url(#SVGID_00000083803480282570093160000017662625133275711380_);">
				<path style="fill:#EA9292;" d="M389.817,241.293H325.77c-1.332,0-2.411-1.08-2.411-2.411v-50.131
					c0-1.332,1.08-2.411,2.411-2.411h64.048c1.332,0,2.411,1.08,2.411,2.411v50.131
					C392.229,240.213,391.149,241.293,389.817,241.293z"/>
				<path style="fill:#EA9292;" d="M384.271,243.11h-52.956c-5.39,0-9.774-4.384-9.774-9.776v-39.037
					c0-5.392,4.384-9.776,9.774-9.776h52.956c5.392,0,9.776,4.384,9.776,9.776v39.037
					C394.047,238.726,389.662,243.11,384.271,243.11z M331.315,188.156c-3.385,0-6.139,2.755-6.139,6.141v39.037
					c0,3.385,2.754,6.141,6.139,6.141h52.956c3.386,0,6.141-2.755,6.141-6.141v-39.037c0-3.385-2.755-6.141-6.141-6.141H331.315z"/>
			</g>
			<g style="clip-path:url(#SVGID_00000083803480282570093160000017662625133275711380_);">
				<path style="fill:#EA9292;" d="M153.327,339.961H90.097c-1.52,0-2.752-1.232-2.752-2.752V217.064
					c0-1.52,1.232-2.752,2.752-2.752h63.23c1.52,0,2.752,1.232,2.752,2.752v120.146
					C156.079,338.729,154.847,339.961,153.327,339.961z"/>
				<path style="fill:#EA9292;" d="M146.999,341.779H96.425c-6.009,0-10.898-4.889-10.898-10.897V223.393
					c0-6.01,4.889-10.899,10.898-10.899h50.573c6.009,0,10.897,4.889,10.897,10.899v107.489
					C157.896,336.89,153.007,341.779,146.999,341.779z M96.425,216.129c-4.004,0-7.262,3.258-7.262,7.264v107.489
					c0,4.004,3.258,7.262,7.262,7.262h50.573c4.004,0,7.262-3.258,7.262-7.262V223.393c0-4.006-3.258-7.264-7.262-7.264H96.425z"/>
			</g>
			<path style="clip-path:url(#SVGID_00000083803480282570093160000017662625133275711380_);fill:#EA9292;" d="M350.468,347.574
				c2.327,6.364,1.236,12.364-2.473,14.546c-3.709,2.145-7.855,0.509-7.855,0.509s-0.364,6.036-3.818,8.727
				c-5.782,4.509-13.418,0.764-13.418,0.764s-0.146,2.182-6.909,3.636c-9.964,2.145-15.673-3.127-15.673-3.127
				s-1.855,4.946-9.273,5.273c-0.8,0.037-1.964-0.254-3.418-0.764c-4.436-1.6-11.527-5.455-19.055-10.073
				c-0.036,0-0.073-0.036-0.109-0.073c-6.4-3.927-13.127-8.436-18.8-12.546c-6.073-4.436-10.945-8.436-12.945-10.909
				c-8.437-10.363-21.164-57.455-28.618-66.546c-0.546-0.691-1.127-1.273-1.673-1.818c-3.309-3.236-6.873-4.4-10.182-4.654
				c-2.036-0.182-4,0-5.782,0.291c3.309-14.291,10.8-25.964,20.473-32.255c2.8-1.818,5.746-3.2,8.873-4.073
				c0.036-0.037,0.073-0.037,0.145-0.037c1.673-0.218,4.255-0.581,7.309-1.018c0.036,0.037,0.073,0,0.073,0
				c10.327-1.345,26.545-3.163,37.091-1.6c14.545,2.145,30,8.327,39.309,13.309c9.273,4.946,26.618,20.109,33.091,22.582
				c6.509,2.473,14.873,4.036,15.164,8.655c0.109,1.454-0.146,3.236-0.836,5.018c-1.455,3.964-4.946,8.036-10.909,8.909
				c-8.655,1.236-18.873-2.764-23.527-4.618c-4.618-1.891-9.6-5.891-11.127-4.036c-1.564,1.854,7.273,24.036,14.691,32.946
				C327.123,322.774,346.905,337.792,350.468,347.574z"/>
		</g>
	</g>
	<path style="fill:#DD4231;" d="M354.558,161.904l-9.075,11.154c-0.297,0.363-0.726,0.528-1.188,0.429s-0.825-0.429-0.957-0.858
		l-7.095-24.684l-12.342,47.388c-0.132,0.528-0.627,0.924-1.188,0.924c-0.033,0-0.066,0-0.066,0
		c-0.594-0.033-1.089-0.495-1.155-1.089l-13.497-108.9l-12.639,74.382l-0.033,0.231c0,0.033,0,0.033-0.033,0.066
		c0,0.132-0.066,0.231-0.132,0.33c-0.066,0.132-0.132,0.264-0.264,0.33c-0.198,0.198-0.495,0.297-0.792,0.297h-46.398l-9.075,11.154
		c-0.264,0.363-0.726,0.528-1.188,0.429c-0.462-0.099-0.825-0.429-0.957-0.858l-7.095-24.684l-12.342,47.388
		c-0.132,0.528-0.627,0.924-1.188,0.924c-0.033,0-0.066,0-0.066,0c-0.594-0.033-1.089-0.495-1.155-1.089L201.207,86.235
		l-12.705,74.415l-0.033,0.231c0,0.099-0.033,0.165-0.099,0.264c0,0.066-0.066,0.132-0.099,0.198c0,0.066-0.066,0.099-0.132,0.165
		c-0.165,0.231-0.495,0.33-0.825,0.363c-0.033,0-0.033,0-0.066,0h-0.198l-46.167,0.033l-9.075,11.154
		c-0.297,0.363-0.759,0.528-1.221,0.429c-0.462-0.099-0.825-0.429-0.924-0.858l-7.128-24.684l-12.309,47.388
		c-0.165,0.528-0.66,0.924-1.221,0.924c0,0-0.033,0-0.066,0c-0.594-0.033-1.056-0.495-1.155-1.089l-4.389-33.561l2.046-3.696
		l3.993,30.624l11.847-45.573c0.132-0.528,0.627-0.924,1.188-0.924c0.495,0.066,1.056,0.363,1.188,0.891l7.722,26.73l7.953-9.768
		c0.231-0.297,0.594-0.462,0.957-0.462l45.903-0.033l13.992-81.873c0.099-0.594,0.594-1.089,1.254-1.023
		c0.594,0,1.122,0.462,1.188,1.089l13.662,110.847l11.847-45.474c0.132-0.528,0.627-0.924,1.188-0.924
		c0.561,0.066,1.023,0.363,1.188,0.891l7.689,26.73l7.953-9.768c0.264-0.297,0.594-0.462,0.99-0.462h45.903l13.893-81.906
		c0.132-0.594,0.561-1.089,1.254-1.023c0.627,0,1.122,0.462,1.221,1.089l13.728,110.847l11.847-45.474
		c0.132-0.528,0.627-0.924,1.155-0.924c0.66,0.066,1.056,0.363,1.221,0.891l7.689,26.73l7.953-9.768
		c0.099-0.099,0.198-0.198,0.33-0.264L354.558,161.904z"/>
	<g>
		<path style="fill:#6A8F9B;" d="M276.168,375.713H154.114c-1.332,0-2.411-1.079-2.411-2.411V133.468
			c0-1.332,1.08-2.411,2.411-2.411h122.054c1.332,0,2.411,1.08,2.411,2.411v239.833
			C278.579,374.633,277.499,375.713,276.168,375.713z"/>
		<path style="fill:#FCF9F9;" d="M269.111,359.001h-107.94c-1.178,0-2.133-0.955-2.133-2.133V144.768
			c0-1.178,0.955-2.133,2.133-2.133h107.94c1.178,0,2.133,0.955,2.133,2.133v212.101
			C271.243,358.046,270.289,359.001,269.111,359.001z"/>
		
			<ellipse transform="matrix(0.7071 -0.7071 0.7071 0.7071 -37.8449 193.9043)" style="fill:#6A8F9B;" cx="215.141" cy="142.635" rx="10.687" ry="10.687"/>
		<path style="fill:#1E5259;" d="M218.259,142.635c0,1.722-1.396,3.118-3.118,3.118c-1.722,0-3.117-1.396-3.117-3.118
			c0-1.722,1.396-3.117,3.117-3.117C216.863,139.518,218.259,140.913,218.259,142.635z"/>
		<rect x="159.038" y="174.884" style="fill:#81F2EF;" width="112.205" height="14.829"/>
	</g>
	<g>
		<rect x="196.689" y="343.044" style="fill:#939AA0;" width="60.845" height="7.184"/>
		<g>
			<path style="fill:#DD4231;" d="M191.383,342.101c-0.613,1.408-1.623,2.536-2.859,3.288l-0.505,0.29l-8.113,4.642l-8.124-4.642
				l-0.516-0.29c-1.225-0.752-2.235-1.88-2.859-3.288c-1.59-3.686,0.097-7.962,3.772-9.553c2.686-1.161,5.673-0.591,7.715,1.236
				c2.053-1.827,5.04-2.396,7.715-1.236C191.297,334.138,192.985,338.415,191.383,342.101z"/>
			<path style="fill:#DD4231;" d="M179.897,351.563c-0.158,0-0.317-0.031-0.469-0.092c-0.073-0.031-0.142-0.068-0.206-0.109
				l-8.561-4.894c-1.515-0.928-2.67-2.258-3.382-3.866c-1.863-4.317,0.118-9.331,4.41-11.191c2.712-1.175,5.828-0.841,8.21,0.801
				c2.389-1.642,5.506-1.972,8.205-0.801c2.082,0.899,3.69,2.556,4.525,4.664c0.836,2.114,0.798,4.43-0.11,6.518
				c-0.701,1.613-1.859,2.946-3.35,3.853l-8.626,4.937C180.346,351.501,180.123,351.563,179.897,351.563z M175.071,333.189
				c-0.812,0-1.629,0.161-2.401,0.495c-3.041,1.317-4.443,4.873-3.124,7.928c0.504,1.137,1.324,2.082,2.37,2.723l7.986,4.565
				l8.008-4.583c1.023-0.624,1.842-1.566,2.34-2.709c0.643-1.481,0.67-3.123,0.077-4.62c-0.591-1.493-1.73-2.668-3.205-3.305
				c-2.153-0.93-4.66-0.528-6.402,1.025c-0.471,0.416-1.178,0.419-1.648-0.003C177.958,333.711,176.524,333.189,175.071,333.189z
				 M191.384,342.101h0.03H191.384z"/>
		</g>
	</g>
	<g>
		<path style="fill:#FCF9F9;" d="M252.632,158.988h-74.993c-4.502,0-8.152,3.65-8.152,8.152v31.337c0,4.502,3.65,8.152,8.152,8.152
			h2.759c0,0,5.73,0.275,8.888,2.548c3.134,2.255,4.776,6.114,4.776,6.114l0.038-8.661h58.532c4.502,0,8.152-3.65,8.152-8.152
			V167.14C260.784,162.638,257.134,158.988,252.632,158.988z"/>
		<g>
			<path style="fill:#939AA0;" d="M194.062,216.527c-0.488,0-0.94-0.29-1.138-0.751c-0.016-0.035-1.558-3.579-4.36-5.596
				c-2.83-2.034-8.173-2.312-8.226-2.315l-2.699,0.002c-5.177,0-9.389-4.212-9.389-9.389V167.14c0-5.177,4.212-9.389,9.389-9.389
				h74.993c5.177,0,9.389,4.212,9.389,9.389v31.337c0,5.177-4.212,9.389-9.389,9.389h-2.17c-0.683,0-1.238-0.554-1.238-1.238
				c0-0.684,0.554-1.238,1.238-1.238h2.17c3.812,0,6.914-3.102,6.914-6.914V167.14c0-3.813-3.102-6.915-6.914-6.915h-74.993
				c-3.813,0-6.914,3.102-6.914,6.915v31.337c0,3.812,3.102,6.914,6.914,6.914h2.759c0.308,0.013,6.194,0.322,9.612,2.781
				c1.126,0.811,2.072,1.801,2.834,2.767l0.02-4.315c0.003-0.681,0.556-1.232,1.238-1.232h23.217c0.683,0,1.238,0.554,1.238,1.238
				c0,0.683-0.554,1.238-1.238,1.238h-21.985l-0.034,7.428c-0.003,0.587-0.417,1.091-0.991,1.207
				C194.225,216.519,194.143,216.527,194.062,216.527z"/>
		</g>
		<g>
			<path style="fill:#939AA0;" d="M242.068,207.866h-9.039c-0.683,0-1.238-0.554-1.238-1.238c0-0.684,0.554-1.238,1.238-1.238h9.039
				c0.683,0,1.238,0.554,1.238,1.238C243.306,207.312,242.752,207.866,242.068,207.866z"/>
		</g>
		<g>
			<g>
				<path style="fill:#DD4231;" d="M181.611,173.839h-0.072l-4.109,2.217l-0.619-2.436l5.163-2.763h2.728v23.632h-3.091V173.839z"/>
				<path style="fill:#DD4231;" d="M184.702,195.398h-3.091c-0.503,0-0.909-0.406-0.909-0.909v-19.166l-2.841,1.534
					c-0.245,0.132-0.538,0.142-0.798,0.032c-0.256-0.113-0.447-0.339-0.515-0.609l-0.619-2.436
					c-0.103-0.406,0.083-0.828,0.453-1.025l5.163-2.763c0.132-0.071,0.279-0.108,0.429-0.108h2.728c0.503,0,0.908,0.406,0.908,0.909
					v23.632C185.61,194.991,185.205,195.398,184.702,195.398z M182.52,193.58h1.273v-21.814h-1.592l-4.333,2.32l0.156,0.617
					l3.083-1.665c0.572-0.305,1.413,0.146,1.413,0.801V193.58z"/>
			</g>
			<g>
				<path style="fill:#DD4231;" d="M193.321,194.489v-1.963l2.509-2.436c6.034-5.745,8.763-8.798,8.798-12.361
					c0-2.399-1.163-4.618-4.689-4.618c-2.145,0-3.927,1.091-5.018,2l-1.018-2.254c1.637-1.381,3.964-2.399,6.69-2.399
					c5.09,0,7.235,3.49,7.235,6.873c0,4.362-3.163,7.889-8.144,12.688l-1.89,1.745v0.073h10.615v2.654H193.321z"/>
				<path style="fill:#DD4231;" d="M208.409,195.398h-15.088c-0.503,0-0.909-0.406-0.909-0.909v-1.963
					c0-0.247,0.1-0.482,0.275-0.652l2.509-2.436c5.986-5.698,8.49-8.584,8.523-11.718c0-2.451-1.271-3.7-3.781-3.7
					c-1.992,0-3.633,1.122-4.436,1.789c-0.217,0.182-0.511,0.245-0.785,0.188c-0.277-0.064-0.509-0.253-0.625-0.512l-1.018-2.254
					c-0.168-0.371-0.069-0.808,0.242-1.069c1.998-1.685,4.583-2.614,7.277-2.614c5.625,0,8.144,3.908,8.144,7.781
					c0,4.853-3.49,8.592-8.423,13.342l-0.274,0.255h8.369c0.503,0,0.909,0.406,0.909,0.909v2.654
					C209.318,194.991,208.912,195.398,208.409,195.398z M194.23,193.58H207.5v-0.836h-9.707c-0.503,0-0.909-0.406-0.909-0.909
					c0-0.253,0.107-0.569,0.292-0.741l1.89-1.745c5.316-5.121,7.852-8.23,7.852-12.019c0-2.751-1.657-5.964-6.326-5.964
					c-2.03,0-3.982,0.624-5.567,1.768l0.258,0.572c1.186-0.789,2.778-1.503,4.655-1.503c3.505,0,5.598,2.066,5.598,5.527
					c-0.039,3.982-2.937,7.172-9.08,13.02l-2.227,2.162V193.58z M197.794,191.762h0.023H197.794z"/>
			</g>
			<g>
				<path style="fill:#DD4231;" d="M212.23,179.802c0-1.346,0.909-2.292,2.182-2.292c1.273,0,2.109,0.946,2.145,2.292
					c0,1.271-0.836,2.254-2.182,2.254C213.103,182.056,212.23,181.073,212.23,179.802z M212.23,192.634
					c0-1.344,0.909-2.289,2.182-2.289c1.273,0,2.109,0.946,2.145,2.289c0,1.273-0.836,2.255-2.182,2.255
					C213.103,194.889,212.23,193.907,212.23,192.634z"/>
				<path style="fill:#DD4231;" d="M214.375,195.797c-1.74,0-3.053-1.36-3.053-3.163c0-1.853,1.3-3.198,3.09-3.198
					c1.748,0,3.003,1.305,3.053,3.174C217.465,194.468,216.164,195.797,214.375,195.797z M214.411,191.253
					c-0.773,0-1.273,0.543-1.273,1.381c0,0.671,0.382,1.346,1.236,1.346c0.938,0,1.273-0.695,1.273-1.346
					C215.639,192.328,215.523,191.253,214.411,191.253z M214.375,182.965c-1.74,0-3.053-1.36-3.053-3.163c0-1.855,1.3-3.2,3.09-3.2
					c1.748,0,3.003,1.305,3.053,3.176C217.465,181.635,216.164,182.965,214.375,182.965z M214.411,178.419
					c-0.773,0-1.273,0.543-1.273,1.383c0,0.67,0.382,1.345,1.236,1.345c0.938,0,1.273-0.695,1.273-1.345
					C215.639,179.495,215.523,178.419,214.411,178.419z"/>
			</g>
			<g>
				<path style="fill:#DD4231;" d="M220.265,190.817c0.909,0.581,3.018,1.49,5.235,1.49c4.109,0,5.38-2.617,5.345-4.581
					c-0.037-3.308-3.018-4.726-6.109-4.726h-1.781v-2.399h1.781c2.327,0,5.272-1.199,5.272-3.999c0-1.89-1.2-3.563-4.144-3.563
					c-1.89,0-3.709,0.836-4.726,1.563l-0.837-2.327c1.236-0.909,3.635-1.818,6.179-1.818c4.654,0,6.763,2.763,6.763,5.635
					c0,2.436-1.455,4.508-4.363,5.562v0.074c2.908,0.581,5.272,2.762,5.272,6.071c0,3.78-2.946,7.088-8.616,7.088
					c-2.654,0-4.981-0.837-6.144-1.6L220.265,190.817z"/>
				<path style="fill:#DD4231;" d="M225.538,195.797c-2.936,0-5.414-0.942-6.643-1.748c-0.35-0.231-0.496-0.669-0.358-1.064
					l0.872-2.472c0.092-0.261,0.3-0.467,0.563-0.558c0.261-0.085,0.55-0.055,0.784,0.095c0.729,0.466,2.657,1.347,4.745,1.347
					c1.541,0,2.714-0.398,3.486-1.184c0.881-0.898,0.959-2.027,0.951-2.472c-0.032-2.828-2.707-3.833-5.2-3.833h-1.781
					c-0.503,0-0.909-0.406-0.909-0.909v-2.399c0-0.503,0.406-0.909,0.909-0.909h1.781c1.753,0,4.364-0.823,4.364-3.09
					c0-1.711-1.149-2.654-3.236-2.654c-1.66,0-3.298,0.751-4.198,1.394c-0.232,0.164-0.53,0.211-0.799,0.129
					c-0.272-0.086-0.488-0.293-0.585-0.561l-0.836-2.327c-0.136-0.379-0.007-0.803,0.317-1.041c1.35-0.992,3.951-1.993,6.717-1.993
					c5.3,0,7.672,3.287,7.672,6.544c0,2.259-1.072,4.165-3.003,5.445c2.431,1.194,3.912,3.487,3.912,6.263
					C235.062,191.651,232.081,195.797,225.538,195.797z M220.504,192.874c1.194,0.591,3.042,1.105,5.034,1.105
					c5.324,0,7.707-3.104,7.707-6.18c0-3.153-2.446-4.762-4.542-5.18c-0.424-0.085-0.73-0.458-0.73-0.891
					c0-0.382,0.24-0.799,0.599-0.928c2.427-0.88,3.764-2.552,3.764-4.708c0-2.18-1.534-4.726-5.854-4.726
					c-1.988,0-3.891,0.614-5.079,1.283l0.215,0.596c1.155-0.607,2.675-1.115,4.247-1.115c3.73,0,5.053,2.409,5.053,4.471
					c0,3.223-3.11,4.908-6.181,4.908h-0.872v0.581h0.872c4.225,0,6.979,2.208,7.018,5.625c0.026,1.416-0.511,2.794-1.471,3.772
					c-0.775,0.788-2.233,1.727-4.783,1.727c-1.85,0-3.574-0.561-4.731-1.097L220.504,192.874z"/>
			</g>
			<g>
				<path style="fill:#DD4231;" d="M253.862,182.418c0,8.036-2.981,12.47-8.216,12.47c-4.616,0-7.744-4.327-7.816-12.143
					c0-7.925,3.417-12.288,8.216-12.288C251.026,170.457,253.862,174.893,253.862,182.418z M241.029,182.782
					c0,6.144,1.89,9.634,4.798,9.634c3.273,0,4.835-3.817,4.835-9.853c0-5.817-1.49-9.634-4.798-9.634
					C243.064,172.929,241.029,176.347,241.029,182.782z"/>
				<path style="fill:#DD4231;" d="M245.645,195.797c-5.308,0-8.651-4.998-8.725-13.044c0-8.148,3.497-13.205,9.125-13.205
					c5.464,0,8.725,4.812,8.725,12.87C254.77,190.921,251.445,195.797,245.645,195.797z M246.045,171.366
					c-4.507,0-7.307,4.36-7.307,11.379c0.066,7.032,2.647,11.234,6.908,11.234c6.358,0,7.307-7.243,7.307-11.562
					C252.953,175.394,250.434,171.366,246.045,171.366z M245.827,193.325c-3.574,0-5.707-3.941-5.707-10.543
					c0-7.936,2.966-10.762,5.744-10.762c2.132,0,5.707,1.37,5.707,10.543C251.572,191.927,247.972,193.325,245.827,193.325z
					 M245.865,173.838c-2.385,0-3.927,3.511-3.927,8.945c0,5.382,1.491,8.725,3.89,8.725c3.543,0,3.927-6.255,3.927-8.944
					C249.754,179.305,249.248,173.838,245.865,173.838z"/>
			</g>
		</g>
	</g>
	<g id="window_2_3_">
		<path style="fill:#FCF9F9;" d="M375.264,233.045h-64.048c-1.332,0-2.411-1.08-2.411-2.411v-50.131c0-1.332,1.08-2.411,2.411-2.411
			h64.048c1.332,0,2.411,1.08,2.411,2.411v50.131C377.675,231.965,376.596,233.045,375.264,233.045z"/>
		<g>
			<path style="fill:#BCE4ED;" d="M346.948,219.309c0,1.787-1.448,3.235-3.235,3.235c-1.787,0-3.235-1.448-3.235-3.235
				c0-1.787,1.448-3.235,3.235-3.235C345.499,216.074,346.948,217.523,346.948,219.309z"/>
			<path style="fill:#6A8F9B;" d="M343.712,223.781c-2.465,0-4.471-2.006-4.471-4.472c0-2.467,2.006-4.473,4.471-4.473
				c2.467,0,4.473,2.006,4.473,4.473C348.186,221.775,346.18,223.781,343.712,223.781z M343.712,217.312
				c-1.101,0-1.996,0.896-1.996,1.998c0,1.101,0.896,1.997,1.996,1.997c1.102,0,1.998-0.896,1.998-1.997
				C345.711,218.208,344.815,217.312,343.712,217.312z"/>
		</g>
		<g>
			<circle style="fill:#BCE4ED;" cx="343.713" cy="191.827" r="3.235"/>
			<path style="fill:#6A8F9B;" d="M343.712,196.3c-2.465,0-4.471-2.006-4.471-4.473c0-2.465,2.006-4.471,4.471-4.471
				c2.467,0,4.473,2.006,4.473,4.471C348.186,194.294,346.18,196.3,343.712,196.3z M343.712,189.83
				c-1.101,0-1.996,0.896-1.996,1.997c0,1.102,0.896,1.998,1.996,1.998c1.102,0,1.998-0.896,1.998-1.998
				C345.711,190.726,344.815,189.83,343.712,189.83z"/>
		</g>
		<g>
			<path style="fill:#BCE4ED;" d="M343.713,190.792c0,0-5.16-0.074-7.538,3.17c-3.201,4.367-0.893,10.763-2.28,13.564
				c-1.387,2.801-5.258,3.258-5.258,3.258v6.915h15.075V190.792z"/>
			<path style="fill:#6A8F9B;" d="M343.712,218.938h-15.075c-0.684,0-1.237-0.554-1.237-1.238v-6.916
				c0-0.625,0.469-1.152,1.089-1.228c0.032-0.005,3.231-0.425,4.298-2.58c0.419-0.844,0.387-2.441,0.351-4.131
				c-0.059-2.962-0.134-6.65,2.038-9.615c2.723-3.712,8.329-3.682,8.555-3.675l-0.032,2.475c-0.13-0.019-4.568-0.003-6.526,2.664
				c-1.676,2.29-1.615,5.377-1.56,8.102c0.042,2.088,0.079,3.893-0.609,5.28c-1.17,2.365-3.679,3.341-5.129,3.717v4.67h13.838
				V218.938z"/>
		</g>
		<g>
			<path style="fill:#BCE4ED;" d="M343.713,190.792c0,0,5.16-0.074,7.538,3.17c3.201,4.367,0.893,10.763,2.28,13.564
				c1.387,2.801,5.257,3.258,5.257,3.258v6.915h-15.076V190.792z"/>
			<path style="fill:#6A8F9B;" d="M358.788,218.938h-15.076v-2.475h13.838v-4.67c-1.45-0.377-3.959-1.352-5.129-3.717
				c-0.688-1.387-0.651-3.19-0.609-5.279c0.055-2.725,0.117-5.814-1.56-8.103c-1.954-2.667-6.356-2.677-6.526-2.664l-0.032-2.475
				c0.258-0.01,5.833-0.037,8.553,3.675c2.174,2.965,2.1,6.653,2.04,9.617c-0.034,1.689-0.066,3.285,0.351,4.13
				c1.067,2.155,4.265,2.575,4.298,2.58c0.62,0.076,1.089,0.603,1.089,1.228v6.916C360.026,218.383,359.471,218.938,358.788,218.938
				z"/>
		</g>
		<g>
			<path style="fill:#939AA0;" d="M324.471,203.095h-4.803c-0.683,0-1.238-0.554-1.238-1.237c0-0.683,0.554-1.238,1.238-1.238h4.803
				c0.683,0,1.238,0.554,1.238,1.238C325.709,202.54,325.155,203.095,324.471,203.095z"/>
		</g>
		<g>
			<path style="fill:#939AA0;" d="M325.171,196.64c-0.185,0-0.374-0.042-0.551-0.13l-3.9-1.95c-0.612-0.306-0.86-1.049-0.554-1.66
				c0.308-0.611,1.052-0.857,1.66-0.554l3.899,1.95c0.612,0.306,0.861,1.049,0.554,1.66
				C326.062,196.39,325.625,196.64,325.171,196.64z"/>
		</g>
		<g>
			<path style="fill:#939AA0;" d="M367.757,203.095h-4.803c-0.683,0-1.238-0.554-1.238-1.237c0-0.683,0.554-1.238,1.238-1.238h4.803
				c0.683,0,1.237,0.554,1.237,1.238C368.994,202.54,368.44,203.095,367.757,203.095z"/>
		</g>
		<g>
			<path style="fill:#939AA0;" d="M362.256,196.64c-0.454,0-0.891-0.25-1.109-0.683c-0.306-0.613-0.058-1.355,0.553-1.661
				l3.898-1.95c0.619-0.306,1.355-0.056,1.662,0.553c0.306,0.612,0.058,1.355-0.553,1.661l-3.898,1.95
				C362.629,196.598,362.441,196.64,362.256,196.64z"/>
		</g>
		<g>
			<path style="fill:#939AA0;" d="M369.718,234.282h-9.496c-0.683,0-1.237-0.554-1.237-1.238c0-0.683,0.554-1.237,1.237-1.237h9.496
				c3.706,0,6.721-3.015,6.721-6.719v-39.039c0-3.704-3.015-6.719-6.721-6.719h-16.233c-0.683,0-1.237-0.554-1.237-1.238
				c0-0.683,0.554-1.238,1.237-1.238h16.233c5.071,0,9.196,4.125,9.196,9.194v39.039
				C378.914,230.157,374.789,234.282,369.718,234.282z"/>
		</g>
		<g>
			<path style="fill:#939AA0;" d="M342.672,179.329h-8.917c-0.683,0-1.237-0.554-1.237-1.238c0-0.683,0.554-1.238,1.237-1.238h8.917
				c0.683,0,1.237,0.554,1.237,1.238C343.909,178.775,343.355,179.329,342.672,179.329z"/>
		</g>
	</g>
	<g id="window_1_3_">
		<path style="fill:#FCF9F9;" d="M159.628,331.945H96.398c-1.52,0-2.752-1.232-2.752-2.752V209.048c0-1.52,1.232-2.752,2.752-2.752
			h63.23c1.52,0,2.752,1.232,2.752,2.752v120.145C162.38,330.713,161.148,331.945,159.628,331.945z"/>
		<g>
			<polygon style="fill:#81F2EF;" points="146.941,229.136 146.941,243.679 135.299,243.679 135.299,255.42 120.769,255.42 
				120.769,243.679 109.115,243.679 109.115,229.136 120.769,229.136 120.769,217.594 135.299,217.594 135.299,229.136 			"/>
			<path style="fill:#2D918A;" d="M135.299,256.659h-14.53c-0.683,0-1.237-0.555-1.237-1.238v-10.504h-10.417
				c-0.683,0-1.238-0.554-1.238-1.237v-14.544c0-0.683,0.554-1.238,1.238-1.238h10.417v-10.305c0-0.683,0.554-1.238,1.237-1.238
				h14.53c0.683,0,1.238,0.554,1.238,1.238v10.305h10.404c0.683,0,1.238,0.554,1.238,1.238v14.544c0,0.683-0.554,1.237-1.238,1.237
				h-10.404v10.504C136.536,256.104,135.982,256.659,135.299,256.659z M122.007,254.184h12.055v-10.504
				c0-0.683,0.554-1.238,1.237-1.238h10.404v-12.069h-10.404c-0.683,0-1.237-0.554-1.237-1.237v-10.305h-12.055v10.305
				c0,0.683-0.554,1.237-1.238,1.237h-10.417v12.069h10.417c0.683,0,1.238,0.554,1.238,1.238V254.184z"/>
		</g>
		<g>
			<path style="fill:#FCF9F9;" d="M112.369,288.677h30.329H112.369z"/>
			<rect x="112.369" y="287.44" style="fill:#939AA0;" width="30.328" height="2.475"/>
		</g>
		<g>
			<path style="fill:#FCF9F9;" d="M104.31,309.007h47.436H104.31z"/>
			<rect x="104.309" y="307.77" style="fill:#939AA0;" width="47.436" height="2.475"/>
		</g>
		<g>
			<path style="fill:#FCF9F9;" d="M104.31,298.842h47.436H104.31z"/>
			<rect x="104.309" y="297.604" style="fill:#939AA0;" width="47.436" height="2.475"/>
		</g>
		<g>
			<path style="fill:#FCF9F9;" d="M104.31,319.109h47.436H104.31z"/>
			<rect x="104.309" y="317.871" style="fill:#939AA0;" width="47.436" height="2.475"/>
		</g>
		<rect x="104.31" y="273.544" style="fill:#939AA0;" width="47.436" height="7.184"/>
		<g>
			<path style="fill:#939AA0;" d="M93.646,309.351c-0.683,0-1.237-0.554-1.237-1.237v-5.936c0-0.683,0.554-1.237,1.237-1.237
				s1.238,0.554,1.238,1.237v5.936C94.883,308.796,94.329,309.351,93.646,309.351z"/>
		</g>
		<g>
			<path style="fill:#939AA0;" d="M153.298,333.182h-50.571c-5.689,0-10.319-4.628-10.319-10.317v-6.394
				c0-0.683,0.554-1.237,1.237-1.237s1.238,0.554,1.238,1.237v6.394c0,4.325,3.519,7.842,7.844,7.842h50.571
				c4.325,0,7.844-3.517,7.844-7.842v-69.481c0-0.683,0.554-1.237,1.238-1.237c0.683,0,1.238,0.554,1.238,1.237v69.481
				C163.618,328.554,158.988,333.182,153.298,333.182z"/>
		</g>
		<g>
			<path style="fill:#939AA0;" d="M93.646,285.351c-0.683,0-1.237-0.554-1.237-1.238v-68.737c0-5.69,4.629-10.317,10.319-10.317
				h50.571c5.69,0,10.319,4.628,10.319,10.317v18.756c0,0.683-0.554,1.238-1.238,1.238c-0.683,0-1.238-0.554-1.238-1.238v-18.756
				c0-4.325-3.519-7.842-7.844-7.842h-50.571c-4.325,0-7.844,3.518-7.844,7.842v68.737
				C94.883,284.797,94.329,285.351,93.646,285.351z"/>
		</g>
	</g>
	<g id="hand_1_">
		<ellipse style="fill:#939AA0;" cx="215.141" cy="275.783" rx="43.555" ry="56.162"/>
		<path style="fill:#1E5259;" d="M262.787,275.579c0,27.091-14.509,49.491-33.418,53.164c-1.782,0.364-3.636,0.546-5.491,0.546
			c-21.455,0-38.873-24.036-38.873-53.71c0-5.709,0.654-11.2,1.818-16.364c4.255-18.4,15.455-32.473,29.346-36.327
			c0.036-0.036,0.073-0.036,0.146-0.036c2.363-0.654,4.8-0.982,7.309-1.018c0.037,0.036,0.073,0,0.073,0h0.182
			C245.369,221.834,262.787,245.87,262.787,275.579z"/>
		<path style="fill:#F9AA8F;" d="M346.824,335.98c2.327,6.364,1.236,12.363-2.473,14.545c-3.709,2.145-7.854,0.509-7.854,0.509
			s-0.364,6.036-3.818,8.727c-5.782,4.509-13.418,0.764-13.418,0.764s-0.146,2.182-6.909,3.636
			c-9.963,2.145-15.673-3.127-15.673-3.127s-1.855,4.946-9.273,5.273c-0.8,0.036-1.964-0.255-3.418-0.764
			c-4.436-1.6-11.527-5.455-19.055-10.073c-0.037,0-0.073-0.037-0.109-0.073c-6.4-3.927-13.127-8.436-18.8-12.546
			c-6.073-4.436-10.945-8.436-12.946-10.909c-8.437-10.364-21.164-57.455-28.618-66.546c-0.546-0.691-1.127-1.273-1.673-1.818
			c-3.309-3.237-6.873-4.4-10.182-4.655c-2.036-0.182-4,0-5.782,0.291c3.309-14.291,10.8-25.963,20.473-32.254
			c2.8-1.818,5.745-3.2,8.873-4.073c0.036-0.036,0.073-0.036,0.146-0.036c1.673-0.218,4.254-0.582,7.309-1.018
			c0.037,0.036,0.073,0,0.073,0c10.327-1.345,26.546-3.164,37.091-1.6c14.546,2.145,30,8.327,39.309,13.309
			c9.273,4.946,26.618,20.109,33.091,22.582c6.509,2.473,14.873,4.037,15.164,8.655c0.109,1.455-0.146,3.237-0.837,5.018
			c-1.454,3.964-4.945,8.036-10.909,8.909c-8.655,1.236-18.873-2.764-23.527-4.618c-4.618-1.891-9.6-5.891-11.127-4.037
			c-1.564,1.855,7.273,24.037,14.691,32.946C323.478,311.18,343.26,326.198,346.824,335.98z"/>
		<g>
			<path style="fill:#CC6148;" d="M336.231,350.974c-0.58,0-1.099-0.411-1.213-1.002c-0.006-0.032-0.63-3.242-1.687-6.969
				c-1.349-4.758-8.337-9.609-13.951-13.508c-1.905-1.321-3.687-2.561-5.127-3.696c-5.944-4.694-13.156-14.526-13.461-14.942
				c-0.403-0.551-0.284-1.326,0.269-1.729c0.551-0.404,1.326-0.285,1.729,0.269c0.073,0.098,7.319,9.976,12.997,14.458
				c1.405,1.108,3.145,2.317,5.005,3.608c6.249,4.337,13.331,9.254,14.921,14.866c1.086,3.833,1.71,7.038,1.735,7.172
				c0.13,0.672-0.31,1.32-0.98,1.45C336.389,350.968,336.309,350.974,336.231,350.974z"/>
		</g>
		<g>
			<path style="fill:#CC6148;" d="M319.26,360.238c-0.001,0-0.001,0-0.003,0c-0.683-0.002-1.236-0.557-1.234-1.241
				c0-0.058-0.005-5.905-1.407-10.838c-1.201-4.223-4.94-6.834-11.732-11.573l-2.422-1.697
				c-8.482-5.972-16.123-19.102-16.444-19.658c-0.342-0.591-0.139-1.349,0.453-1.69c0.596-0.343,1.35-0.137,1.69,0.453
				c0.076,0.131,7.693,13.216,15.725,18.872l2.414,1.69c7.019,4.898,11.255,7.855,12.697,12.926c1.498,5.274,1.5,11.268,1.5,11.521
				C320.497,359.685,319.942,360.238,319.26,360.238z"/>
		</g>
		<g>
			<path style="fill:#CC6148;" d="M296.779,361.113c-0.008,0-0.014,0-0.022,0c-0.683-0.013-1.228-0.577-1.215-1.26
				c0.002-0.066,0.089-6.593-2.417-11.466c-1.909-3.709-6.255-7.41-10.088-10.675c-2.097-1.784-4.077-3.469-5.384-4.947
				c-3.606-4.075-8.457-12.686-8.664-13.05c-0.334-0.596-0.123-1.35,0.474-1.685c0.603-0.33,1.352-0.121,1.686,0.474
				c0.048,0.087,4.927,8.745,8.358,12.621c1.191,1.346,3.107,2.976,5.133,4.704c4.009,3.413,8.553,7.282,10.686,11.427
				c2.797,5.437,2.696,12.353,2.691,12.644C298.004,360.575,297.453,361.113,296.779,361.113z"/>
		</g>
		<g>
			<path style="fill:#CC6148;" d="M253.977,262.311c-0.401,0-0.794-0.193-1.033-0.553c-6.477-9.758-15.863-13.1-15.958-13.132
				c-0.645-0.224-0.988-0.928-0.764-1.574c0.222-0.643,0.925-0.989,1.571-0.766c0.414,0.142,10.253,3.617,17.214,14.103
				c0.377,0.57,0.223,1.338-0.346,1.716C254.45,262.245,254.213,262.311,253.977,262.311z"/>
		</g>
		<path style="fill:#CC6148;" d="M207.296,226.961c0,0-10.764,11.527-13.164,21.746c-0.727,3.164-1.236,6.764-1.527,10.218
			c-2.036-0.182-4,0-5.782,0.291C190.132,244.924,197.623,233.252,207.296,226.961z"/>
	</g>
	<g>
		<g>
			<path style="fill:#FCF9F9;" d="M244.803,296.658c-3.479-3.085-3.799-8.406-0.714-11.886c3.085-3.479,8.406-3.799,11.886-0.713
				l29.513,26.17c3.479,3.085,3.799,8.406,0.714,11.886c-3.085,3.479-8.406,3.799-11.886,0.713l-19.872-17.621L244.803,296.658z"/>
			<path style="fill:#939AA0;" d="M279.896,326.181c-2.28,0-4.566-0.801-6.402-2.427l-19.873-17.621
				c-0.511-0.454-0.557-1.236-0.105-1.748c0.454-0.509,1.236-0.554,1.748-0.105l19.872,17.621c1.436,1.275,3.303,1.9,5.194,1.797
				c1.916-0.116,3.671-0.97,4.943-2.406c2.628-2.962,2.354-7.509-0.609-10.137l-29.513-26.17c-1.434-1.273-3.274-1.898-5.193-1.796
				c-1.916,0.114-3.671,0.968-4.944,2.404c-2.628,2.963-2.354,7.51,0.609,10.138c0.511,0.454,0.557,1.236,0.105,1.748
				c-0.456,0.509-1.239,0.554-1.748,0.105c-3.983-3.535-4.35-9.65-0.818-13.634c1.713-1.93,4.074-3.078,6.647-3.232
				c2.593-0.183,5.057,0.704,6.987,2.414l29.513,26.17c3.983,3.535,4.351,9.65,0.818,13.633
				C285.221,325.084,282.564,326.181,279.896,326.181z"/>
		</g>
		<g>
			<path style="fill:#81F2EF;" d="M270.731,297.144l15.39,13.647c3.131,2.776,3.161,7.844,0.081,11.318
				c-3.081,3.474-8.121,4.056-11.252,1.28l-15.389-13.646l3.922-4.408L270.731,297.144z"/>
			<path style="fill:#2D918A;" d="M279.688,326.378c-2.022,0-3.994-0.675-5.561-2.063l-15.39-13.646
				c-0.245-0.219-0.395-0.525-0.414-0.854c-0.019-0.327,0.093-0.649,0.311-0.896l3.922-4.407c0.454-0.509,1.238-0.555,1.748-0.102
				c0.509,0.454,0.556,1.238,0.102,1.748l-3.099,3.48l14.463,12.823c2.609,2.317,6.873,1.798,9.497-1.168
				c1.295-1.458,1.996-3.266,1.985-5.098c-0.013-1.782-0.705-3.373-1.953-4.478l-15.391-13.647
				c-0.511-0.454-0.558-1.236-0.105-1.748c0.451-0.512,1.234-0.557,1.748-0.105l15.39,13.647c1.779,1.577,2.768,3.82,2.786,6.314
				c0.016,2.443-0.907,4.841-2.601,6.751C285.113,325.199,282.358,326.378,279.688,326.378z"/>
		</g>
	</g>
	<g>
		<path style="fill:#FCF9F9;" d="M289.6,324.791c-4.57,0.863-8.973-2.142-9.836-6.711l-7.319-38.759
			c-0.863-4.569,2.142-8.973,6.711-9.836c2.133-0.403,4.229,0.037,5.947,1.085c1.962,1.198,3.429,3.189,3.889,5.626l7.319,38.76
			C297.174,319.525,294.17,323.928,289.6,324.791z"/>
		<g>
			<path style="fill:#939AA0;" d="M288.017,326.178c-1.922,0-3.8-0.575-5.422-1.684c-2.13-1.454-3.567-3.65-4.046-6.186
				l-7.32-38.758c-0.986-5.233,2.467-10.295,7.699-11.282c0.677-0.134,1.318,0.316,1.445,0.988c0.126,0.67-0.316,1.318-0.988,1.445
				c-3.89,0.733-6.458,4.497-5.723,8.39l7.32,38.757c0.355,1.887,1.425,3.521,3.009,4.602c1.585,1.082,3.496,1.476,5.38,1.123
				c3.891-0.733,6.46-4.497,5.725-8.39l-5.906-31.273c-0.125-0.672,0.316-1.32,0.986-1.447c0.688-0.124,1.32,0.316,1.447,0.986
				l5.906,31.274c0.986,5.234-2.467,10.295-7.699,11.283C289.225,326.121,288.62,326.178,288.017,326.178z"/>
		</g>
		<g>
			<path style="fill:#FF7769;" d="M292.651,295.576l3.816,20.211c0.777,4.111-2.302,8.138-6.864,8.999
				c-4.562,0.861-8.905-1.764-9.681-5.875l-3.816-20.212L292.651,295.576z"/>
			<path style="fill:#DD4231;" d="M287.849,326.189c-1.837,0-3.614-0.483-5.153-1.416c-2.132-1.295-3.55-3.295-3.991-5.631
				l-3.816-20.213c-0.125-0.67,0.316-1.318,0.986-1.445l16.545-3.124c0.687-0.129,1.32,0.318,1.447,0.986l3.818,20.212
				c0.899,4.773-2.624,9.459-7.852,10.445C289.171,326.126,288.505,326.189,287.849,326.189z M277.551,299.686l3.587,18.996
				c0.309,1.637,1.318,3.049,2.842,3.975c1.566,0.951,3.485,1.278,5.385,0.914c3.896-0.735,6.534-4.122,5.886-7.554l-3.587-18.996
				L277.551,299.686z"/>
		</g>
	</g>
	<g>
		<circle style="fill:#FCF9F9;" cx="274.789" cy="325.107" r="8.636"/>
		<path style="fill:#939AA0;" d="M274.788,335.314c-5.629,0-10.206-4.579-10.206-10.208c0-5.629,4.578-10.206,10.206-10.206
			c5.628,0,10.208,4.578,10.208,10.206C284.996,330.735,280.416,335.314,274.788,335.314z M274.788,318.042
			c-3.895,0-7.064,3.169-7.064,7.064c0,3.896,3.169,7.066,7.064,7.066c3.896,0,7.066-3.169,7.066-7.066
			C281.854,321.211,278.684,318.042,274.788,318.042z"/>
	</g>
	<g>
		<g>
			<path style="fill:#FCF9F9;" d="M288.49,316.432c0-7.119,5.771-12.89,12.89-12.89c7.119,0,12.889,5.771,12.889,12.89
				c0,7.119-5.771,12.889-12.889,12.889C294.261,329.322,288.49,323.551,288.49,316.432z"/>
			<path style="fill:#939AA0;" d="M301.38,330.559c-7.789,0-14.127-6.338-14.127-14.127c0-7.789,6.337-14.127,14.127-14.127
				c7.789,0,14.127,6.337,14.127,14.127C315.506,324.221,309.169,330.559,301.38,330.559z M301.38,304.781
				c-6.424,0-11.652,5.227-11.652,11.652c0,6.424,5.227,11.652,11.652,11.652c6.424,0,11.652-5.227,11.652-11.652
				C313.031,310.008,307.804,304.781,301.38,304.781z"/>
		</g>
		<g>
			<path style="fill:#FCF9F9;" d="M303.175,316.432h11.094H303.175z"/>
			<path style="fill:#939AA0;" d="M314.269,317.67h-11.094c-0.683,0-1.237-0.554-1.237-1.237s0.554-1.238,1.237-1.238h11.094
				c0.683,0,1.237,0.554,1.237,1.238S314.952,317.67,314.269,317.67z"/>
		</g>
		<g>
			<path style="fill:#FCF9F9;" d="M289.724,316.432h6.04H289.724z"/>
			<path style="fill:#939AA0;" d="M295.764,317.67h-6.041c-0.683,0-1.237-0.554-1.237-1.237s0.554-1.238,1.237-1.238h6.041
				c0.684,0,1.237,0.554,1.237,1.238S296.448,317.67,295.764,317.67z"/>
		</g>
	</g>
	<g>
		<path style="fill:#81F2EF;" d="M310.195,323.744c0-4.017,3.256-7.273,7.273-7.273c4.016,0,7.272,3.256,7.272,7.273
			c0,4.017-3.256,7.273-7.272,7.273C313.451,331.017,310.195,327.76,310.195,323.744z"/>
		<path style="fill:#2D918A;" d="M317.467,332.254c-4.692,0-8.509-3.819-8.509-8.511c0-4.692,3.817-8.509,8.509-8.509
			c4.692,0,8.511,3.817,8.511,8.509C325.978,328.435,322.159,332.254,317.467,332.254z M317.467,317.708
			c-3.327,0-6.034,2.707-6.034,6.034c0,3.329,2.707,6.036,6.034,6.036c3.329,0,6.036-2.707,6.036-6.036
			C323.503,320.415,320.796,317.708,317.467,317.708z"/>
	</g>
	<g id="bubbles_3_">
		<path style="fill:#FCD9D9;" d="M135.794,359.464c0,1.879-1.524,3.403-3.403,3.403s-3.403-1.524-3.403-3.403
			c0-1.88,1.524-3.404,3.403-3.404S135.794,357.584,135.794,359.464z"/>
		<path style="fill:#FCD9D9;" d="M80.71,263.997c0.354,1.807-0.824,3.56-2.631,3.914c-1.807,0.354-3.56-0.824-3.914-2.631
			c-0.354-1.807,0.824-3.559,2.631-3.914C78.604,261.012,80.356,262.19,80.71,263.997z"/>
		<path style="fill:#FCD9D9;" d="M75.607,248.916c0.242,1.236-0.564,2.435-1.8,2.678c-1.236,0.242-2.435-0.564-2.678-1.8
			c-0.242-1.236,0.563-2.435,1.8-2.677C74.166,246.874,75.365,247.68,75.607,248.916z"/>
		<path style="fill:#FCD9D9;" d="M362.902,308.714c0,1.866-1.513,3.38-3.379,3.38c-1.866,0-3.379-1.513-3.379-3.38
			c0-1.866,1.513-3.379,3.379-3.379C361.389,305.335,362.902,306.848,362.902,308.714z"/>
		<path style="fill:#FCD9D9;" d="M367.758,288.173c0,0.981-0.796,1.777-1.777,1.777c-0.981,0-1.777-0.796-1.777-1.777
			c0-0.981,0.796-1.777,1.777-1.777C366.962,286.396,367.758,287.191,367.758,288.173z"/>
		<path style="fill:#FCD9D9;" d="M249.13,76.011c0,0.952-0.772,1.724-1.724,1.724c-0.952,0-1.724-0.772-1.724-1.724
			c0-0.952,0.771-1.724,1.724-1.724C248.358,74.287,249.13,75.059,249.13,76.011z"/>
		<path style="fill:#FCD9D9;" d="M107.23,135.688c0,0.974-0.789,1.763-1.763,1.763c-0.974,0-1.763-0.789-1.763-1.763
			c0-0.973,0.789-1.763,1.763-1.763C106.44,133.925,107.23,134.714,107.23,135.688z"/>
		<path style="fill:#FCD9D9;" d="M87.096,181.684c0,1.619-1.313,2.932-2.932,2.932c-1.619,0-2.932-1.313-2.932-2.932
			c0-1.619,1.313-2.932,2.932-2.932C85.784,178.752,87.096,180.065,87.096,181.684z"/>
		<path style="fill:#FCF9F9;" d="M272.702,113.766c0,1.856-1.505,3.361-3.361,3.361c-1.856,0-3.361-1.505-3.361-3.361
			c0-1.856,1.504-3.361,3.361-3.361C271.198,110.406,272.702,111.91,272.702,113.766z"/>
		<path style="fill:#FCD9D9;" d="M77.438,165.168c0,0.689-0.559,1.248-1.248,1.248c-0.689,0-1.248-0.559-1.248-1.248
			c0-0.689,0.559-1.247,1.248-1.247C76.879,163.92,77.438,164.479,77.438,165.168z"/>
		<path style="fill:#FCD9D9;" d="M145.487,352.975c0,0.77-0.624,1.395-1.394,1.395c-0.77,0-1.395-0.624-1.395-1.395
			c0-0.77,0.624-1.394,1.395-1.394C144.862,351.581,145.487,352.205,145.487,352.975z"/>
		<circle style="fill:#FCD9D9;" cx="111.006" cy="344.407" r="1.363"/>
		<path style="fill:#FCF9F9;" d="M344.324,294.84c0,1.062-0.861,1.923-1.923,1.923c-1.062,0-1.923-0.861-1.923-1.923
			c0-1.062,0.861-1.923,1.923-1.923C343.463,292.916,344.324,293.777,344.324,294.84z"/>
		<circle style="fill:#FCF9F9;" cx="179.044" cy="119.68" r="2.553"/>
		<path style="fill:#FCF9F9;" d="M260.342,121.054c0,0.759-0.615,1.374-1.374,1.374s-1.374-0.615-1.374-1.374
			c0-0.759,0.615-1.374,1.374-1.374S260.342,120.295,260.342,121.054z"/>
	</g>
</g>
</svg>
